<svg width="189" height="184" viewBox="0 0 189 184" fill="none" xmlns="http://www.w3.org/2000/svg">
<path d="M165.866 60.4371C166.966 58.8353 167.616 56.9146 167.626 54.8434C167.654 49.2278 162.996 44.6526 157.222 44.6266C154.874 44.616 152.71 45.3677 150.959 46.6319C149.052 36.6623 140.092 29.091 129.283 29.0406C127.35 29.0316 125.475 29.2651 123.686 29.7085C118.114 19.4916 107.051 12.5516 94.3369 12.6102C81.735 12.6687 70.8181 19.5852 65.2978 29.706C63.5115 29.2643 61.6399 29.0316 59.7106 29.0406C48.9017 29.091 39.9417 36.6623 38.0342 46.6319C36.283 45.3685 34.1195 44.616 31.7704 44.6266C25.9975 44.6534 21.3394 49.2278 21.367 54.8434C21.3771 56.9146 22.0269 58.8353 23.1274 60.4371C19.1308 61.8803 16.2858 65.6216 16.3067 70.0105C16.3343 75.6269 21.0367 80.1573 26.8096 80.1313C29.1721 80.1207 31.3397 79.339 33.0842 78.0455C34.6966 79.0184 36.5941 79.5863 38.6321 79.5765C44.3807 79.5497 49.0204 75.0135 49.0321 69.4304C52.2543 71.1803 55.9674 72.1752 59.9214 72.1565C64.4783 72.1353 68.7065 70.776 72.2181 68.4656C78.1306 73.7225 86.0092 76.9171 94.6505 76.8773C103.181 76.8374 110.939 73.6558 116.775 68.4656C120.286 70.7768 124.514 72.1362 129.072 72.1573C133.025 72.1752 136.738 71.1811 139.96 69.4312C139.973 75.0144 144.612 79.5505 150.36 79.5773C152.398 79.5871 154.296 79.0201 155.908 78.0463C157.653 79.3398 159.82 80.1207 162.183 80.1321C167.956 80.159 172.659 75.6277 172.686 70.0113C172.708 65.6216 169.863 61.8803 165.866 60.4371Z" fill="#FCE8CB"/>
<path d="M167.65 59.8758C168.45 58.3204 168.872 56.6063 168.882 54.8483C168.912 48.5688 163.684 43.4356 157.229 43.4055C157.21 43.4055 157.191 43.4055 157.174 43.4055C155.279 43.4055 153.45 43.844 151.792 44.6868C149.091 34.8621 139.9 27.8691 129.289 27.8195C127.602 27.8179 125.955 27.9765 124.329 28.3101C118.229 17.837 106.897 11.3891 94.4958 11.3891C94.4415 11.3891 94.3855 11.3891 94.3311 11.3891C82.0001 11.446 70.7186 17.9037 64.6556 28.3076C63.034 27.9757 61.369 27.8171 59.7056 27.8195C49.0949 27.8691 39.9041 34.862 37.2021 44.686C35.5295 43.8359 33.6905 43.3803 31.7662 43.4055C25.311 43.4356 20.0834 48.5688 20.1135 54.8483C20.1227 56.6063 20.545 58.3196 21.3453 59.875C17.5101 61.8274 15.0331 65.7412 15.054 70.0145C15.069 73.0571 16.3009 75.9109 18.522 78.052C20.7307 80.1801 23.6543 81.3491 26.7594 81.3491C26.7787 81.3491 26.7987 81.3491 26.8171 81.3491C29.0901 81.3386 31.2653 80.6983 33.1578 79.4886C34.8337 80.3461 36.6928 80.7943 38.5828 80.7943C38.6012 80.7943 38.6204 80.7943 38.638 80.7943C44.3832 80.7675 49.1777 76.669 50.1202 71.3283C53.1876 72.6861 56.5077 73.3898 59.9281 73.3743C64.2559 73.3548 68.4431 72.1874 72.0993 69.9918C78.3313 75.2283 86.2392 78.0959 94.4942 78.0959C94.5477 78.0959 94.6037 78.0959 94.6573 78.0951C102.856 78.0577 110.714 75.1868 116.896 69.9909C120.553 72.1874 124.74 73.354 129.067 73.3743C129.104 73.3743 129.141 73.3743 129.177 73.3743C132.526 73.3743 135.842 72.6714 138.876 71.3283C139.818 76.669 144.612 80.7675 150.357 80.7943C150.376 80.7943 150.394 80.7943 150.412 80.7943C152.304 80.7943 154.162 80.3453 155.838 79.4886C157.731 80.6983 159.906 81.3386 162.179 81.3491C162.197 81.3491 162.217 81.3491 162.236 81.3491C165.342 81.3491 168.265 80.1793 170.474 78.052C172.695 75.9117 173.928 73.0571 173.942 70.0145C173.962 65.742 171.485 61.829 167.65 59.8758ZM168.707 76.3192C166.971 77.991 164.675 78.9102 162.235 78.9102C162.219 78.9102 162.205 78.9102 162.189 78.9102C160.186 78.9013 158.276 78.2668 156.668 77.075C156.444 76.909 156.177 76.8252 155.908 76.8252C155.68 76.8252 155.45 76.8862 155.247 77.0091C153.773 77.8982 152.07 78.3619 150.366 78.3562C145.332 78.3327 141.226 74.3278 141.215 69.4272C141.214 68.9952 140.978 68.5958 140.594 68.3769C140.211 68.1581 139.737 68.154 139.349 68.3647C136.25 70.0479 132.735 70.9362 129.177 70.9362C129.144 70.9362 129.111 70.9362 129.078 70.9362C124.922 70.9175 120.91 69.7135 117.479 67.4544C116.997 67.138 116.358 67.1827 115.928 67.5642C110.103 72.7463 102.544 75.6196 94.6455 75.6562C94.5945 75.657 94.5443 75.657 94.4933 75.657C86.5428 75.657 78.9376 72.7862 73.0644 67.5642C72.6371 67.1835 71.9965 67.1396 71.5148 67.4544C68.0835 69.7127 64.0727 70.9167 59.9155 70.9354C59.8821 70.9354 59.8495 70.9354 59.8169 70.9354C56.2593 70.9354 52.7436 70.0471 49.6443 68.3639C49.2563 68.1532 48.7821 68.1581 48.3991 68.3761C48.0152 68.595 47.7794 68.9944 47.7786 69.4264C47.7677 74.3261 43.6624 78.3318 38.6271 78.3554C38.6121 78.3554 38.5978 78.3554 38.5828 78.3554C36.8793 78.3554 35.2084 77.8901 33.7474 77.0083C33.305 76.7406 32.7388 76.7675 32.3257 77.0742C30.7184 78.2659 28.8092 78.9005 26.8054 78.9094C24.3509 78.8932 22.0336 78.0007 20.2874 76.3184C18.5421 74.6361 17.5737 72.3932 17.562 70.0031C17.5444 66.2675 19.9563 62.8825 23.5657 61.5801C23.9253 61.4499 24.2046 61.1668 24.3217 60.8121C24.4404 60.4566 24.3844 60.0686 24.1711 59.7578C23.1667 58.2968 22.6307 56.5949 22.6215 54.8369C22.5981 49.903 26.7051 45.8696 31.7763 45.846C33.7566 45.8395 35.6742 46.4472 37.2866 47.6105C37.6344 47.8611 38.0894 47.9197 38.4925 47.7659C38.8947 47.6122 39.1874 47.2672 39.2669 46.8532C41.0975 37.2847 49.6987 30.3056 59.7157 30.2592C59.7491 30.2592 59.7817 30.2592 59.8144 30.2592C61.5639 30.2592 63.3042 30.4707 64.9876 30.8873C65.5504 31.0264 66.135 30.7734 66.4051 30.2771C71.9087 20.1864 82.6139 13.8841 94.3411 13.8296C94.393 13.8296 94.4432 13.8296 94.495 13.8296C106.287 13.8296 117.038 20.1221 122.577 30.2796C122.848 30.7766 123.437 31.0296 123.995 30.8897C125.713 30.4634 127.477 30.2617 129.276 30.26C139.294 30.3064 147.895 37.2855 149.725 46.854C149.804 47.2672 150.096 47.613 150.499 47.7667C150.902 47.9205 151.357 47.8627 151.705 47.6113C153.307 46.4562 155.197 45.8468 157.172 45.8468C157.187 45.8468 157.201 45.8468 157.216 45.8468C162.287 45.8704 166.395 49.9038 166.371 54.8377C166.362 56.5957 165.827 58.2976 164.821 59.7586C164.608 60.0694 164.553 60.4575 164.671 60.813C164.789 61.1685 165.068 61.4516 165.427 61.5809C169.035 62.8841 171.448 66.2691 171.431 70.004C171.421 72.3941 170.452 74.6369 168.707 76.3192Z" fill="#3A312A"/>
<path d="M17.587 166.192C17.4281 166.192 17.2776 166.192 17.1271 166.175V175.71C17.1271 179.614 20.3802 182.779 24.3944 182.779H30.9927C35.0068 182.779 38.26 179.614 38.26 175.71V166.192H17.587Z" fill="#87796F"/>
<path d="M38.26 164.971H17.5871C17.4758 164.972 17.3705 164.974 17.2659 164.962C16.913 164.925 16.5568 165.034 16.2908 165.266C16.0249 165.497 15.8727 165.828 15.8727 166.175V175.71C15.8727 180.281 19.6953 183.999 24.3936 183.999H30.9918C35.6909 183.999 39.5136 180.281 39.5136 175.71V166.192C39.5144 165.518 38.9524 164.971 38.26 164.971ZM37.0056 175.71C37.0056 178.934 34.3077 181.559 30.9927 181.559H24.3944C21.0794 181.559 18.3824 178.935 18.3824 175.71V167.412H37.0064V175.71H37.0056Z" fill="#3A312A"/>
<path d="M171.413 166.191H150.673V175.71C150.673 179.614 153.926 182.779 157.94 182.779H164.539C168.553 182.779 171.806 179.614 171.806 175.71V166.183C171.681 166.191 171.547 166.191 171.413 166.191Z" fill="#87796F"/>
<path d="M172.663 165.292C172.408 165.061 172.055 164.943 171.722 164.966C171.624 164.973 171.517 164.972 171.413 164.972H150.673C149.981 164.972 149.419 165.518 149.419 166.192V175.71C149.419 180.281 153.241 184 157.94 184H164.539C169.238 184 173.06 180.281 173.06 175.71V166.184C173.06 165.845 172.917 165.522 172.663 165.292ZM170.552 175.71C170.552 178.934 167.854 181.559 164.539 181.559H157.94C154.625 181.559 151.928 178.935 151.928 175.71V167.412H170.552V175.71Z" fill="#3A312A"/>
<path d="M27.3222 9.22028C26.5076 18.6277 16.4304 20.1123 16.4304 20.1123C25.0826 20.5085 27.2394 31.5494 27.2394 31.5494C27.4242 23.6771 38.3795 19.996 38.3795 19.996C30.1731 19.5185 27.3222 9.22028 27.3222 9.22028Z" fill="#D7E057"/>
<path d="M38.454 18.7782C31.2586 18.3592 28.5591 8.99656 28.5332 8.90138C28.3734 8.3303 27.8232 7.95365 27.2085 8.0049C26.6022 8.05859 26.123 8.52717 26.072 9.11696C25.3528 17.4278 16.6111 18.8506 16.2423 18.9059C15.6042 18.9995 15.1434 19.5486 15.1769 20.1758C15.2103 20.8022 15.7263 21.3017 16.3711 21.3318C23.9211 21.6775 25.9875 31.6788 26.0068 31.7797C26.1222 32.3581 26.6423 32.7697 27.2386 32.7697C27.2737 32.7697 27.3088 32.7689 27.344 32.7656C27.9837 32.7136 28.4788 32.2019 28.4939 31.5787C28.6553 24.6566 38.6881 21.1845 38.7902 21.1504C39.3555 20.9592 39.7034 20.4068 39.6214 19.83C39.5395 19.2533 39.0511 18.8132 38.454 18.7782ZM27.1098 27.1947C25.975 24.6485 24.008 21.5758 20.7641 19.9732C23.2161 18.8302 26.1238 16.79 27.6233 13.2431C28.9204 15.7414 31.1357 18.84 34.5929 20.3393C32.0782 21.6735 28.8041 23.9236 27.1098 27.1947Z" fill="#3A312A"/>
<path d="M9.1757 23.0336C8.5995 29.6873 1.47186 30.7384 1.47186 30.7384C7.59178 31.0182 9.11716 38.8279 9.11716 38.8279C9.24762 33.2594 16.9966 30.6554 16.9966 30.6554C11.192 30.3186 9.1757 23.0336 9.1757 23.0336Z" fill="#D7E057"/>
<path d="M17.0719 29.4376C12.2491 29.1569 10.405 22.779 10.3875 22.7148C10.2286 22.1437 9.66996 21.7719 9.06449 21.8183C8.45734 21.8712 7.97732 22.3414 7.9263 22.9312C7.44293 28.5208 1.53208 29.4937 1.28454 29.532C0.646458 29.6255 0.185666 30.1746 0.219118 30.8019C0.252569 31.4283 0.768556 31.9277 1.41333 31.9578C6.4603 32.1889 7.87278 38.9898 7.88533 39.0565C7.99906 39.6357 8.52007 40.049 9.11717 40.049C9.15146 40.049 9.18658 40.0482 9.22171 40.0449C9.86146 39.9937 10.3574 39.4804 10.3724 38.8564C10.4811 34.2121 17.3395 31.8326 17.4072 31.8098C17.9726 31.6194 18.3213 31.0671 18.2402 30.4903C18.1582 29.9135 17.669 29.4726 17.0719 29.4376ZM9.05612 34.9662C8.2834 33.4319 7.09922 31.7553 5.33717 30.6709C6.89015 29.824 8.42891 28.5322 9.41071 26.6717C10.2947 28.1962 11.6302 29.8883 13.5428 30.9206C11.9957 31.8163 10.2068 33.1496 9.05612 34.9662Z" fill="#3A312A"/>
<path d="M9.1757 1.34796C8.5995 8.00164 1.47186 9.05188 1.47186 9.05188C7.59178 9.33173 9.11716 17.1414 9.11716 17.1414C9.24762 11.5729 16.9966 8.96972 16.9966 8.96972C11.192 8.63211 9.1757 1.34796 9.1757 1.34796Z" fill="#D7E057"/>
<path d="M17.0719 7.75194C12.2491 7.47128 10.405 1.09256 10.3875 1.0283C10.2286 0.457215 9.66996 0.0862554 9.06449 0.132625C8.45734 0.185503 7.97732 0.654897 7.9263 1.2455C7.44293 6.83512 1.53208 7.80807 1.28454 7.84631C0.646458 7.93986 0.185666 8.48898 0.219118 9.11538C0.252569 9.74178 0.768556 10.2413 1.41333 10.2714C6.4603 10.5024 7.87278 17.3033 7.88533 17.37C7.99906 17.9493 8.52007 18.3625 9.11717 18.3625C9.15146 18.3625 9.18658 18.3617 9.22171 18.3585C9.86146 18.3072 10.3574 17.7939 10.3724 17.1699C10.4811 12.5248 17.3395 10.1461 17.4072 10.1233C17.9726 9.93295 18.3213 9.38058 18.2402 8.80381C18.1582 8.22703 17.669 7.78692 17.0719 7.75194ZM9.05612 13.2797C8.2834 11.7454 7.09922 10.0688 5.33717 8.9844C6.89015 8.13673 8.42891 6.84488 9.41071 4.98439C10.2947 6.5089 11.6302 8.201 13.5428 9.23415C11.9965 10.1298 10.2068 11.4632 9.05612 13.2797Z" fill="#3A312A"/>
<path d="M171.41 109.824H171.176L156.738 78.4555C150.258 64.3794 135.883 55.3185 120.028 55.3185H68.9716C53.1165 55.3185 38.7417 64.3794 32.2621 78.4555L17.8229 109.824H17.5887C8.56773 109.824 1.2536 116.938 1.2536 125.714V150.3C1.2536 159.075 8.5669 166.189 17.5887 166.189H171.41C180.432 166.189 187.746 159.075 187.746 150.3V125.714C187.746 116.938 180.432 109.824 171.41 109.824Z" fill="#F16C7A"/>
<path d="M171.993 108.612L157.883 77.9568C151.212 63.4634 136.353 54.0983 120.028 54.0983H68.9725C52.6474 54.0983 37.7883 63.4634 31.1173 77.9568L17.0067 108.612C7.57672 108.912 0 116.468 0 125.713V150.299C0 159.734 7.89033 167.409 17.5887 167.409H123.08C123.772 167.409 124.334 166.863 124.334 166.189C124.334 165.515 123.772 164.969 123.08 164.969H17.5887C9.27355 164.969 2.50885 158.388 2.50885 150.299V125.713C2.50885 117.624 9.27355 111.044 17.5887 111.044H17.8229C18.3171 111.044 18.7654 110.762 18.9677 110.322L33.407 78.9542C39.6741 65.3377 53.6342 56.5388 68.9725 56.5388H120.028C135.367 56.5388 149.326 65.3369 155.593 78.9542L170.032 110.322C170.235 110.762 170.683 111.044 171.177 111.044H171.411C179.726 111.044 186.491 117.624 186.491 125.713V150.299C186.491 158.388 179.726 164.969 171.411 164.969H134.913C134.221 164.969 133.659 165.515 133.659 166.189C133.659 166.863 134.221 167.409 134.913 167.409H171.411C181.111 167.409 189 159.734 189 150.299V125.713C189 116.468 181.423 108.912 171.993 108.612Z" fill="#3A312A"/>
<path d="M150.19 104.01L140.307 82.5377C136.329 73.8966 127.504 68.3338 117.771 68.3338H71.2296C61.497 68.3338 52.6717 73.8958 48.6943 82.5377L38.8103 104.01C37.5533 106.74 39.6072 109.824 42.6823 109.824H60.3579H72.1939H146.319C149.393 109.824 151.447 106.74 150.19 104.01Z" fill="#8AC6DD"/>
<path d="M151.335 103.512L141.451 82.0398C137.278 72.9733 127.984 67.1144 117.771 67.1144H71.2304C61.0177 67.1144 51.7233 72.9733 47.5502 82.0398L37.6662 103.512C36.9018 105.174 37.0532 107.078 38.0701 108.605C39.0879 110.132 40.8123 111.045 42.6839 111.045H60.3596C61.052 111.045 61.614 110.499 61.614 109.824C61.614 109.15 61.052 108.604 60.3596 108.604H42.6822C41.6502 108.604 40.7362 108.121 40.1742 107.278C39.6131 106.435 39.5328 105.427 39.9543 104.51L49.8383 83.0372C53.6074 74.8476 62.0037 69.5557 71.2287 69.5557H117.77C126.995 69.5557 135.391 74.8476 139.16 83.0372L149.044 104.51C149.466 105.427 149.385 106.435 148.824 107.278C148.262 108.121 147.349 108.604 146.317 108.604H72.1921C71.4997 108.604 70.9377 109.15 70.9377 109.824C70.9377 110.499 71.4997 111.045 72.1921 111.045H146.317C148.188 111.045 149.912 110.133 150.93 108.606C151.948 107.077 152.1 105.174 151.335 103.512Z" fill="#3A312A"/>
<path d="M35.3255 147.943C41.3875 147.943 46.3017 143.163 46.3017 137.266C46.3017 131.369 41.3875 126.588 35.3255 126.588C29.2635 126.588 24.3492 131.369 24.3492 137.266C24.3492 143.163 29.2635 147.943 35.3255 147.943Z" fill="#8AC6DD"/>
<path d="M35.3254 125.368C28.5816 125.368 23.0948 130.705 23.0948 137.266C23.0948 143.826 28.5816 149.163 35.3254 149.163C42.0701 149.163 47.5561 143.826 47.5561 137.266C47.5561 130.705 42.0701 125.368 35.3254 125.368ZM35.3254 146.723C29.9649 146.723 25.6036 142.48 25.6036 137.266C25.6036 132.051 29.9649 127.809 35.3254 127.809C40.686 127.809 45.0472 132.051 45.0472 137.266C45.0472 142.48 40.686 146.723 35.3254 146.723Z" fill="#3A312A"/>
<path d="M153.608 147.943C159.67 147.943 164.585 143.163 164.585 137.266C164.585 131.369 159.67 126.588 153.608 126.588C147.546 126.588 142.632 131.369 142.632 137.266C142.632 143.163 147.546 147.943 153.608 147.943Z" fill="#8AC6DD"/>
<path d="M153.609 125.368C146.866 125.368 141.379 130.705 141.379 137.266C141.379 143.826 146.866 149.163 153.609 149.163C160.353 149.163 165.84 143.826 165.84 137.266C165.84 130.705 160.353 125.368 153.609 125.368ZM153.609 146.723C148.249 146.723 143.888 142.48 143.888 137.266C143.888 132.051 148.249 127.809 153.609 127.809C158.97 127.809 163.331 132.051 163.331 137.266C163.331 142.48 158.97 146.723 153.609 146.723Z" fill="#3A312A"/>
<path d="M113.316 133.016H76.5199C70.5154 133.016 65.6482 137.75 65.6482 143.591C65.6482 149.432 70.5154 154.167 76.5199 154.167H113.316C119.321 154.167 124.188 149.432 124.188 143.591C124.188 137.751 119.321 133.016 113.316 133.016Z" fill="#87796F"/>
<path d="M113.316 131.796H76.5199C69.8338 131.796 64.3938 137.087 64.3938 143.592C64.3938 150.096 69.8338 155.387 76.5199 155.387H113.316C120.002 155.387 125.442 150.095 125.442 143.591C125.442 137.087 120.002 131.796 113.316 131.796ZM113.316 152.947H76.5199C71.217 152.947 66.9026 148.75 66.9026 143.591C66.9026 138.433 71.217 134.236 76.5199 134.236H113.316C118.619 134.236 122.934 138.433 122.934 143.592C122.934 148.751 118.619 152.947 113.316 152.947Z" fill="#3A312A"/>
<path d="M18.7687 87.2292L7.17444 88.5113C3.80255 88.8847 1.25439 91.6595 1.25439 94.9616C1.25439 98.2083 3.72059 100.955 7.02726 101.394L18.7068 102.94C20.4036 103.165 21.9139 101.882 21.9139 100.217V89.9609C21.9131 88.3193 20.4446 87.0445 18.7687 87.2292Z" fill="#87796F"/>
<path d="M21.8044 86.9998C20.9397 86.2473 19.7781 85.8885 18.6274 86.0171L7.03314 87.2992C3.02316 87.7425 0 91.0364 0 94.9616C0 98.8005 2.9479 102.085 6.85836 102.603L18.5379 104.15C18.7219 104.175 18.905 104.186 19.0882 104.186C20.0683 104.186 21.0225 103.842 21.771 103.206C22.6591 102.452 23.1676 101.363 23.1676 100.217V89.961C23.1676 88.831 22.6708 87.7523 21.8044 86.9998ZM20.6587 100.217C20.6587 100.665 20.468 101.073 20.121 101.368C19.7739 101.662 19.3365 101.793 18.8757 101.731L7.19622 100.183C4.52429 99.8296 2.50885 97.5843 2.50885 94.9608C2.50885 92.2778 4.57614 90.026 7.3158 89.7234L18.91 88.4413C19.3608 88.3925 19.7957 88.5259 20.1335 88.8196C20.4722 89.1133 20.6587 89.5184 20.6587 89.9601V100.217Z" fill="#3A312A"/>
<path d="M181.826 88.5113L170.231 87.2292C168.555 87.0437 167.087 88.3193 167.087 89.9601V100.216C167.087 101.881 168.597 103.164 170.294 102.94L181.973 101.393C185.28 100.956 187.746 98.2075 187.746 94.9608C187.746 91.6596 185.198 88.8839 181.826 88.5113Z" fill="#87796F"/>
<path d="M181.967 87.2992L170.373 86.0171C169.224 85.8877 168.061 86.2481 167.196 86.9998C166.329 87.7523 165.832 88.8318 165.832 89.961V100.217C165.832 101.363 166.341 102.452 167.229 103.206C167.978 103.842 168.932 104.186 169.912 104.186C170.095 104.186 170.278 104.174 170.462 104.15L182.142 102.603C186.052 102.085 189 98.8005 189 94.9616C189 91.0364 185.977 87.7425 181.967 87.2992ZM181.804 100.184L170.124 101.732C169.664 101.792 169.226 101.662 168.879 101.369C168.533 101.074 168.341 100.665 168.341 100.218V89.9618C168.341 89.5208 168.528 89.1149 168.866 88.8212C169.158 88.5674 169.522 88.4332 169.906 88.4332C169.967 88.4332 170.028 88.4364 170.09 88.4429L181.684 89.725C184.424 90.0285 186.491 92.2803 186.491 94.9624C186.491 97.5851 184.476 99.8304 181.804 100.184Z" fill="#3A312A"/>
<path d="M160.985 35.3876C166.989 35.3876 171.856 30.6527 171.856 24.812C171.856 18.9712 166.989 14.2364 160.985 14.2364C154.98 14.2364 150.113 18.9712 150.113 24.812C150.113 30.6527 154.98 35.3876 160.985 35.3876Z" fill="#FCE8CB"/>
<path d="M160.985 13.0161C154.298 13.0161 148.858 18.308 148.858 24.812C148.858 31.316 154.298 36.6078 160.985 36.6078C167.671 36.6078 173.111 31.316 173.111 24.812C173.111 18.308 167.671 13.0161 160.985 13.0161ZM160.985 34.1673C155.682 34.1673 151.367 29.9704 151.367 24.812C151.367 19.6535 155.682 15.4566 160.985 15.4566C166.287 15.4566 170.602 19.6535 170.602 24.812C170.602 29.9704 166.287 34.1673 160.985 34.1673Z" fill="#3A312A"/>
<path d="M181.055 14.2364C184.75 14.2364 187.746 11.3226 187.746 7.72834C187.746 4.13403 184.75 1.22028 181.055 1.22028C177.36 1.22028 174.365 4.13403 174.365 7.72834C174.365 11.3226 177.36 14.2364 181.055 14.2364Z" fill="#FCE8CB"/>
<path d="M181.055 0C176.675 0 173.111 3.46717 173.111 7.72832C173.111 11.9895 176.675 15.4566 181.055 15.4566C185.436 15.4566 189 11.9895 189 7.72832C189 3.46717 185.436 0 181.055 0ZM181.055 13.0161C178.058 13.0161 175.619 10.6439 175.619 7.72832C175.619 4.81271 178.058 2.44052 181.055 2.44052C184.053 2.44052 186.491 4.81271 186.491 7.72832C186.491 10.6439 184.053 13.0161 181.055 13.0161Z" fill="#3A312A"/>
<path d="M181.055 57.3523C184.75 57.3523 187.746 54.4385 187.746 50.8442C187.746 47.2499 184.75 44.3362 181.055 44.3362C177.36 44.3362 174.365 47.2499 174.365 50.8442C174.365 54.4385 177.36 57.3523 181.055 57.3523Z" fill="#FCE8CB"/>
<path d="M181.055 43.1159C176.675 43.1159 173.111 46.5831 173.111 50.8442C173.111 55.1054 176.675 58.5726 181.055 58.5726C185.436 58.5726 189 55.1054 189 50.8442C189 46.5831 185.436 43.1159 181.055 43.1159ZM181.055 56.132C178.058 56.132 175.619 53.7598 175.619 50.8442C175.619 47.9286 178.058 45.5564 181.055 45.5564C184.053 45.5564 186.491 47.9286 186.491 50.8442C186.491 53.7598 184.053 56.132 181.055 56.132Z" fill="#3A312A"/>
<path d="M125.492 13.4228C119.719 13.396 115.017 17.9272 114.989 23.5429C114.961 29.1593 119.619 33.7329 125.393 33.7597C131.166 33.7866 135.868 29.2553 135.896 23.6389C135.924 18.024 131.266 13.4497 125.492 13.4228Z" fill="#FCE8CB"/>
<path d="M125.498 12.2026C119.019 12.1806 113.765 17.2577 113.735 23.5372C113.704 29.8167 118.932 34.9499 125.387 34.98H125.445C128.55 34.98 131.474 33.8102 133.682 31.6828C135.904 29.5425 137.136 26.6879 137.151 23.6454C137.181 17.3659 131.953 12.2327 125.498 12.2026ZM131.916 29.9493C130.181 31.621 127.884 32.5403 125.444 32.5403H125.398C120.327 32.5167 116.22 28.4833 116.243 23.5494C116.268 18.6293 120.39 14.6431 125.442 14.6431H125.487C130.558 14.6667 134.666 18.7001 134.642 23.634C134.63 26.0241 133.661 28.2669 131.916 29.9493Z" fill="#3A312A"/>
<path d="M58.1217 14.2364C61.8166 14.2364 64.8119 11.3226 64.8119 7.72834C64.8119 4.13403 61.8166 1.22028 58.1217 1.22028C54.4267 1.22028 51.4314 4.13403 51.4314 7.72834C51.4314 11.3226 54.4267 14.2364 58.1217 14.2364Z" fill="#FCE8CB"/>
<path d="M58.1217 0C53.7412 0 50.177 3.46717 50.177 7.72832C50.177 11.9895 53.7412 15.4566 58.1217 15.4566C62.5021 15.4566 66.0664 11.9895 66.0664 7.72832C66.0664 3.46717 62.5021 0 58.1217 0ZM58.1217 13.0161C55.1245 13.0161 52.6859 10.6439 52.6859 7.72832C52.6859 4.81271 55.1245 2.44052 58.1217 2.44052C61.1189 2.44052 63.5575 4.81271 63.5575 7.72832C63.5575 10.6439 61.1189 13.0161 58.1217 13.0161Z" fill="#3A312A"/>
<path d="M94.5 88.6723C111.474 88.6723 125.233 75.2873 125.233 58.7759C125.233 42.2646 111.474 28.8795 94.5 28.8795C77.5264 28.8795 63.7666 42.2646 63.7666 58.7759C63.7666 75.2873 77.5264 88.6723 94.5 88.6723Z" fill="#D7E057"/>
<path d="M94.5 27.6593C76.862 27.6593 62.5122 41.6183 62.5122 58.7759C62.5122 75.9336 76.862 89.8926 94.5 89.8926C112.138 89.8926 126.488 75.9336 126.488 58.7759C126.488 41.6183 112.138 27.6593 94.5 27.6593ZM94.5 87.4521C78.2452 87.4521 65.0211 74.5881 65.0211 58.7759C65.0211 42.9638 78.2452 30.0998 94.5 30.0998C110.755 30.0998 123.979 42.9638 123.979 58.7759C123.979 74.5881 110.754 87.4521 94.5 87.4521Z" fill="#3A312A"/>
<path d="M80.9681 66.9867V66.9069L83.4326 64.909C87.2937 61.5532 90.5385 58.0763 90.5385 53.7216C90.5385 49.0073 87.2109 45.5711 81.1738 45.5711C77.5594 45.5711 74.4384 46.7702 72.4255 48.2483L74.1917 52.603C75.5883 51.5642 77.6004 50.4456 79.901 50.4456C82.9819 50.4456 84.2957 52.1239 84.2957 54.2414C84.2137 57.2783 81.3795 60.1955 75.5473 65.2694L72.0968 68.3054V71.9816H91.0319V66.9875H80.9681V66.9867Z" fill="#87796F"/>
<path d="M91.0319 65.7664H84.3291C88.2145 62.383 91.793 58.5807 91.793 53.7216C91.793 48.0287 87.6249 44.3508 81.1738 44.3508C77.6631 44.3508 74.1984 45.4165 71.6695 47.2738C71.2204 47.604 71.0523 48.1857 71.2589 48.6958L73.0243 53.0513C73.1689 53.4076 73.4758 53.6769 73.8555 53.7794C74.2327 53.8827 74.64 53.807 74.9527 53.5728C76.6537 52.3077 78.3179 51.6659 79.9002 51.6659C81.9842 51.6659 83.0413 52.5323 83.0421 54.2089C82.9727 56.7373 80.3008 59.4959 74.7052 64.3639L71.2547 67.3999C70.9921 67.631 70.8416 67.9596 70.8416 68.3046V71.9808C70.8416 72.6552 71.4035 73.2011 72.096 73.2011H91.0319C91.7244 73.2011 92.2864 72.6552 92.2864 71.9808V66.9867C92.2864 66.3123 91.7244 65.7664 91.0319 65.7664ZM89.7775 70.7605H73.3504V68.8464L76.3828 66.1781C82.6457 60.7292 85.4564 57.7176 85.5501 54.2406C85.5501 51.8164 84.0665 49.2246 79.9002 49.2246C78.2042 49.2246 76.4873 49.7314 74.7813 50.7328L73.9592 48.7039C75.9638 47.4958 78.5906 46.7905 81.1738 46.7905C86.1765 46.7905 89.2841 49.4458 89.2841 53.7208C89.2841 57.4263 86.6113 60.5095 82.6306 63.971L80.1661 65.969C79.8793 66.2008 79.7145 66.6239 79.7145 66.9859C79.7145 67.6603 80.2765 68.2061 80.9689 68.2061H89.7775V70.7605Z" fill="#3A312A"/>
<path d="M113.7 61.2335V46.0104H106.061L103.738 49.6484L99.93 55.6114L95.9568 61.8323V65.7876H107.786V71.9808H113.701V65.7884H116.905V61.2335H113.7ZM107.785 61.2335H101.789V61.1538C101.789 61.1538 106.965 52.3232 107.827 50.6457H107.991C107.868 52.3232 107.785 61.2335 107.785 61.2335Z" fill="#87796F"/>
<path d="M116.904 60.0133H114.955V46.0104C114.955 45.336 114.393 44.7901 113.7 44.7901H106.06C105.627 44.7901 105.223 45.0081 104.995 45.3669L94.8905 61.1888C94.7676 61.3824 94.7015 61.6053 94.7015 61.8323V65.7875C94.7015 66.4619 95.2635 67.0078 95.956 67.0078H106.531V71.9808C106.531 72.6552 107.093 73.201 107.785 73.201H113.7C114.393 73.201 114.955 72.6552 114.955 71.9808V67.0078H116.904C117.596 67.0078 118.158 66.4619 118.158 65.7875V61.2327C118.158 60.5591 117.596 60.0133 116.904 60.0133ZM115.65 64.5673H113.7C113.008 64.5673 112.446 65.1131 112.446 65.7875V70.7605H109.04V65.7875C109.04 65.1131 108.478 64.5673 107.785 64.5673H97.2104V62.1805L100.995 56.2549L106.757 47.2298H112.446V61.2327C112.446 61.9071 113.008 62.453 113.7 62.453H115.65V64.5673ZM107.991 49.4247H107.827C107.352 49.4247 106.917 49.6858 106.705 50.0991C105.868 51.7285 100.751 60.4607 100.699 60.5494C100.591 60.7332 100.535 61.0212 100.535 61.2335C100.535 61.9079 101.097 62.4538 101.789 62.4538H107.785C108.473 62.4538 109.033 61.9136 109.04 61.2449C109.04 61.1562 109.123 52.3533 109.242 50.7328C109.267 50.3944 109.147 50.0624 108.909 49.8143C108.672 49.5654 108.339 49.4247 107.991 49.4247ZM106.542 60.0133H103.898C104.636 58.7499 105.661 56.987 106.606 55.3486C106.577 57.0822 106.556 58.8695 106.542 60.0133Z" fill="#3A312A"/>
<path d="M171.413 111.044H171.179C170.685 111.044 170.234 110.759 170.033 110.32L155.59 78.9509C150.213 67.2608 139.158 59.1339 126.438 57.0594C126.471 57.6289 126.488 58.1984 126.488 58.776C126.488 59.6301 126.454 60.4762 126.379 61.3141C133.613 65.2108 139.534 71.3202 143.046 78.9509L157.489 110.32C157.69 110.759 158.141 111.044 158.635 111.044H158.869C167.181 111.044 173.947 117.625 173.947 125.711V150.296C173.947 158.39 167.181 164.971 158.869 164.971H171.413C179.726 164.971 186.491 158.39 186.491 150.296V125.711C186.491 117.625 179.726 111.044 171.413 111.044Z" fill="#D34E5C"/>
</svg>
