<svg width="190" height="186" viewBox="0 0 190 186" fill="none" xmlns="http://www.w3.org/2000/svg">
<path d="M45.7461 22.7586C37.7878 22.3412 34.8021 12.9931 34.7734 12.8989C34.5967 12.3287 33.9863 11.9535 33.3092 12.0047C32.6386 12.0583 32.1086 12.5261 32.0522 13.1149C31.2558 21.4112 21.5863 22.8309 21.1794 22.8869C20.4736 22.9803 19.9649 23.5286 20.0019 24.1539C20.0389 24.7793 20.6096 25.278 21.3218 25.308C29.6723 25.6532 31.9578 35.6372 31.98 35.7379C32.1068 36.3154 32.6821 36.7263 33.3416 36.7263C33.3804 36.7263 33.4193 36.7247 33.4581 36.7223C34.1648 36.6703 34.7133 36.1594 34.7299 35.5373C34.9094 28.6274 46.006 25.1602 46.1179 25.1261C46.7423 24.9352 47.128 24.3838 47.0373 23.8088C46.9458 23.2329 46.4056 22.7935 45.7461 22.7586ZM33.1982 31.1613C31.943 28.6192 29.7675 25.5517 26.1806 23.9525C28.8916 22.8114 32.1086 20.7745 33.767 17.2334C35.2016 19.7276 37.6518 22.8212 41.4756 24.3172C38.6943 25.6491 35.0731 27.8956 33.1982 31.1613Z" fill="#3A312A"/>
<path d="M45.7461 22.7586C37.7878 22.3412 34.8021 12.9931 34.7734 12.8989C34.5967 12.3287 33.9863 11.9535 33.3092 12.0047C32.6386 12.0583 32.1086 12.5261 32.0522 13.1149C31.2558 21.4112 21.5863 22.8309 21.1794 22.8869C20.4736 22.9803 19.9649 23.5286 20.0019 24.1539C20.0389 24.7793 20.6096 25.278 21.3218 25.308C29.6723 25.6532 31.9578 35.6372 31.98 35.7379C32.1068 36.3154 32.6821 36.7263 33.3416 36.7263C33.3804 36.7263 33.4193 36.7247 33.4581 36.7223C34.1648 36.6703 34.7133 36.1594 34.7299 35.5373C34.9094 28.6274 46.006 25.1602 46.1179 25.1261C46.7423 24.9352 47.128 24.3838 47.0373 23.8088C46.9458 23.2329 46.4056 22.7935 45.7461 22.7586ZM33.1982 31.1613C31.943 28.6192 29.7675 25.5517 26.1806 23.9525C28.8916 22.8114 32.1086 20.7745 33.767 17.2334C35.2016 19.7276 37.6518 22.8212 41.4756 24.3172C38.6943 25.6491 35.0731 27.8956 33.1982 31.1613Z" fill="#3A312A"/>
<path d="M9.90897 25.446C9.27168 32.0887 1.38831 33.138 1.38831 33.138C8.15711 33.4174 9.84423 41.2142 9.84423 41.2142C9.98852 35.6549 18.5591 33.0552 18.5591 33.0552C12.1381 32.7181 9.90897 25.446 9.90897 25.446Z" fill="#D7E057"/>
<path d="M18.6415 31.8394C13.3082 31.5592 11.2677 25.1918 11.2474 25.1276C11.0716 24.5575 10.4575 24.1822 9.7841 24.2326C9.11259 24.2854 8.58259 24.7548 8.52617 25.3436C7.99062 30.9241 1.45398 31.8954 1.18019 31.9336C0.474455 32.027 -0.0342689 32.5752 0.00180423 33.2006C0.0388023 33.8259 0.609498 34.3246 1.32264 34.3547C6.90473 34.5853 8.46605 41.3751 8.48084 41.4409C8.60571 42.0199 9.18288 42.4317 9.84237 42.4317C9.88122 42.4317 9.91915 42.4309 9.95799 42.4277C10.6656 42.3765 11.2141 41.864 11.2307 41.2411C11.351 36.6044 18.9374 34.2288 19.0124 34.206C19.6386 34.016 20.0243 33.4645 19.9336 32.8887C19.8439 32.3137 19.3028 31.8743 18.6415 31.8394ZM9.7767 37.3581C8.92205 35.8263 7.61232 34.1524 5.66344 33.0698C7.37923 32.2243 9.08299 30.9346 10.168 29.0772C11.1456 30.5992 12.6228 32.2885 14.7382 33.3192C13.0279 34.2134 11.0494 35.5453 9.7767 37.3581Z" fill="#3A312A"/>
<path d="M9.90897 3.79592C9.27168 10.4387 1.38831 11.4872 1.38831 11.4872C8.15711 11.7666 9.84423 19.5634 9.84423 19.5634C9.98852 14.0041 18.5591 11.4052 18.5591 11.4052C12.1381 11.0681 9.90897 3.79592 9.90897 3.79592Z" fill="#D7E057"/>
<path d="M18.6424 10.1893C13.3082 9.90913 11.2677 3.54089 11.2483 3.47673C11.0726 2.90659 10.4584 2.53055 9.78502 2.58172C9.1135 2.63451 8.58351 3.10394 8.52709 3.69277C7.99154 9.2732 1.4549 10.2446 1.18111 10.2827C0.475371 10.3761 -0.0333534 10.9243 0.00271976 11.5497C0.0397179 12.1751 0.610413 12.6738 1.32355 12.7038C6.90564 12.9345 8.46696 19.7242 8.48176 19.7908C8.60663 20.3699 9.1838 20.7817 9.84329 20.7817C9.88214 20.7817 9.92006 20.7808 9.95891 20.7776C10.6665 20.7264 11.215 20.214 11.2316 19.591C11.3519 14.9535 18.9384 12.5787 19.0133 12.556C19.6385 12.3659 20.0252 11.8145 19.9345 11.2387C19.8439 10.6636 19.3028 10.2242 18.6424 10.1893ZM9.7767 15.708C8.92204 14.1771 7.61231 12.5024 5.66343 11.4198C7.37922 10.5743 9.08298 9.28457 10.168 7.42713C11.1456 8.94833 12.6237 10.6385 14.7381 11.6699C13.0279 12.5633 11.0494 13.8945 9.7767 15.708Z" fill="#3A312A"/>
<path d="M33.0475 13C32.1466 22.3911 21 23.8742 21 23.8742C30.5705 24.2697 32.955 35.2925 32.955 35.2925C33.1594 27.4331 45.2763 23.758 45.2763 23.758C36.1998 23.2813 33.0475 13 33.0475 13Z" fill="#D7E057"/>
<path d="M18.6415 31.8394C13.3082 31.5592 11.2677 25.1918 11.2474 25.1276C11.0716 24.5575 10.4575 24.1822 9.7841 24.2326C9.11259 24.2854 8.58259 24.7548 8.52617 25.3436C7.99062 30.9241 1.45398 31.8954 1.18019 31.9336C0.474455 32.027 -0.0342689 32.5752 0.00180423 33.2006C0.0388023 33.8259 0.609498 34.3246 1.32264 34.3547C6.90473 34.5853 8.46605 41.3751 8.48084 41.4409C8.60571 42.0199 9.18288 42.4317 9.84237 42.4317C9.88122 42.4317 9.91915 42.4309 9.95799 42.4277C10.6656 42.3765 11.2141 41.864 11.2307 41.2411C11.351 36.6044 18.9374 34.2288 19.0124 34.206C19.6386 34.016 20.0243 33.4645 19.9336 32.8887C19.8439 32.3137 19.3028 31.8743 18.6415 31.8394ZM9.7767 37.3581C8.92205 35.8263 7.61232 34.1524 5.66344 33.0698C7.37923 32.2243 9.08299 30.9346 10.168 29.0772C11.1456 30.5992 12.6228 32.2885 14.7382 33.3192C13.0279 34.2134 11.0494 35.5453 9.7767 37.3581Z" fill="#3A312A"/>
<path d="M18.6424 10.1893C13.3082 9.90913 11.2677 3.54089 11.2483 3.47673C11.0726 2.90659 10.4584 2.53055 9.78502 2.58172C9.1135 2.63451 8.58351 3.10394 8.52709 3.69277C7.99154 9.2732 1.4549 10.2446 1.18111 10.2827C0.475371 10.3761 -0.0333534 10.9243 0.00271976 11.5497C0.0397179 12.1751 0.610413 12.6738 1.32355 12.7038C6.90564 12.9345 8.46696 19.7242 8.48176 19.7908C8.60663 20.3699 9.1838 20.7817 9.84329 20.7817C9.88214 20.7817 9.92006 20.7808 9.95891 20.7776C10.6665 20.7264 11.215 20.214 11.2316 19.591C11.3519 14.9535 18.9384 12.5787 19.0133 12.556C19.6385 12.3659 20.0252 11.8145 19.9345 11.2387C19.8439 10.6636 19.3028 10.2242 18.6424 10.1893ZM9.7767 15.708C8.92204 14.1771 7.61231 12.5024 5.66343 11.4198C7.37922 10.5743 9.08298 9.28457 10.168 7.42713C11.1456 8.94833 12.6237 10.6385 14.7381 11.6699C13.0279 12.5633 11.0494 13.8945 9.7767 15.708Z" fill="#3A312A"/>
<path d="M145.348 3.23065C145.073 2.60284 144.272 2.28771 143.555 2.53137L95.4579 18.7748C94.7429 19.016 94.3859 19.721 94.6615 20.3488C94.8733 20.8328 95.3987 21.1301 95.9564 21.1301C96.122 21.1301 96.2903 21.1041 96.4541 21.048L144.552 4.80463C145.266 4.56342 145.623 3.85845 145.348 3.23065Z" fill="#3A312A"/>
<path d="M119.22 104.056H168.593L110.475 65.0712H153.828L102.491 30.6343H138.327L92.659 0L72.6227 13.4406L63.9124 19.2834L46.9904 30.6335H82.8258L31.4882 65.0712H74.8398L16.7222 104.056H66.0953L36.9334 122.306L26.8754 128.601L0 145.421H76.008V162.273H109.306V145.421H185.314L119.22 104.056ZM97.6167 18.1203C97.2024 19.7626 95.6928 21.088 93.8226 21.4519C90.1107 22.1747 86.8771 19.3345 87.7003 16.0761C88.1147 14.4339 89.6242 13.1093 91.4945 12.7446C95.2054 12.0226 98.439 14.8619 97.6167 18.1203Z" fill="#D7E057"/>
<path d="M189.417 147.648L126.854 108.494H171.889C172.484 108.494 173.013 108.161 173.204 107.665C173.394 107.171 173.205 106.624 172.732 106.307L117.874 69.5079H157.124C157.719 69.5079 158.248 69.1749 158.439 68.6794C158.629 68.1848 158.44 67.6382 157.967 67.3215L109.889 35.071H141.622C142.217 35.071 142.746 34.738 142.937 34.2426C143.127 33.748 142.938 33.2014 142.465 32.8846L96.7972 2.25035C96.2996 1.91655 95.6105 1.91655 95.1129 2.25035L49.4443 32.8846C48.9716 33.2022 48.782 33.748 48.9725 34.2426C49.1631 34.7372 49.6921 35.071 50.2869 35.071H82.0202L33.943 67.3223C33.4703 67.6391 33.2807 68.1856 33.4712 68.6803C33.6618 69.1749 34.1909 69.5087 34.7856 69.5087H74.0369L19.1789 106.308C18.7062 106.626 18.5166 107.171 18.7071 107.666C18.8977 108.161 19.4268 108.495 20.0215 108.495H65.0574L39.4279 124.534C38.8036 124.925 38.6584 125.686 39.1033 126.233C39.5491 126.781 40.4139 126.909 41.0383 126.518L70.2002 108.268C70.6913 107.96 70.9004 107.409 70.7163 106.904C70.5322 106.4 69.9985 106.057 69.3946 106.057H24.1218L78.9798 69.2577C79.4525 68.9402 79.6421 68.3944 79.4516 67.8998C79.261 67.4052 78.7319 67.0722 78.1372 67.0722H38.8859L86.964 34.8208C87.4367 34.5033 87.6263 33.9575 87.4358 33.4629C87.2452 32.9683 86.7161 32.6353 86.1214 32.6353H54.389L95.9555 4.75265L137.522 32.6353H105.789C105.194 32.6353 104.665 32.9683 104.474 33.4629C104.284 33.9575 104.473 34.5041 104.946 34.8208L153.024 67.0722H113.774C113.179 67.0722 112.65 67.4052 112.459 67.8998C112.269 68.3944 112.459 68.941 112.931 69.2577L167.789 106.057H122.517C121.914 106.057 121.38 106.4 121.196 106.904C121.012 107.409 121.221 107.96 121.712 108.268L184.276 147.423H112.605C111.838 147.423 111.217 147.968 111.217 148.641V164.275H80.6938V148.641C80.6938 147.968 80.0731 147.423 79.3063 147.423H7.63454L30.9785 132.813C31.6028 132.423 31.7471 131.662 31.3032 131.114C30.8582 130.567 29.9934 130.439 29.3682 130.829L2.49272 147.649C2.00157 147.957 1.79254 148.508 1.9766 149.013C2.16067 149.517 2.69436 149.86 3.29836 149.86H77.9189V165.494C77.9189 166.168 78.5396 166.713 79.3063 166.713H112.605C113.371 166.713 113.992 166.168 113.992 165.494V149.86H188.613C189.216 149.86 189.75 149.517 189.934 149.013C190.118 148.507 189.908 147.956 189.417 147.648ZM97.4197 25.8602C99.8301 25.3907 101.734 23.7201 102.267 21.6028C102.757 19.6641 102.108 17.6808 100.533 16.2969C98.957 14.9137 96.6973 14.3436 94.4904 14.774C92.0799 15.2435 90.1764 16.9141 89.6427 19.0314C89.1534 20.9701 89.8009 22.9534 91.3761 24.3373C92.6062 25.4175 94.2517 26.0007 95.9647 26.0007C96.4476 26.0007 96.935 25.9544 97.4197 25.8602ZM93.3388 22.6147C92.424 21.8115 92.0642 20.698 92.3519 19.5593C92.6497 18.3817 93.7504 17.4144 95.0916 17.1537C95.3839 17.0968 95.6752 17.0692 95.961 17.0692C96.9424 17.0692 97.8637 17.399 98.5713 18.0211C99.486 18.8243 99.8458 19.9378 99.5591 21.0765C99.2613 22.2549 98.1606 23.2214 96.8194 23.4821C95.5217 23.7339 94.2545 23.418 93.3388 22.6147Z" fill="#3A312A"/>
<path d="M96.4531 18.774L48.3555 2.53055C47.6396 2.28771 46.8368 2.60284 46.563 3.22983C46.2883 3.85764 46.6444 4.5626 47.3594 4.80382L95.4569 21.0472C95.6206 21.1025 95.789 21.1293 95.9545 21.1293C96.5123 21.1293 97.0377 20.832 97.2495 20.348C97.5251 19.721 97.1681 19.016 96.4531 18.774Z" fill="#3A312A"/>
<path d="M96.4531 18.774L48.3555 2.53055C47.6396 2.28771 46.8368 2.60284 46.563 3.22983C46.2883 3.85764 46.6444 4.5626 47.3594 4.80382L95.4569 21.0472C95.6206 21.1025 95.789 21.1293 95.9545 21.1293C96.5123 21.1293 97.0377 20.832 97.2495 20.348C97.5251 19.721 97.1681 19.016 96.4531 18.774Z" fill="#3A312A"/>
<path d="M143.819 165.29H48.0901C45.663 165.29 43.6947 167.019 43.6947 169.15V180.923C43.6947 183.054 45.663 184.783 48.0901 184.783H143.819C146.247 184.783 148.214 183.054 148.214 180.923V169.15C148.214 167.018 146.247 165.29 143.819 165.29Z" fill="#87796F"/>
<path d="M143.819 164.071H48.091C44.9027 164.071 42.3082 166.35 42.3082 169.149V180.922C42.3082 183.722 44.9027 186 48.091 186H89.5937C90.3604 186 90.9811 185.455 90.9811 184.782C90.9811 184.108 90.3604 183.563 89.5937 183.563H48.091C46.4326 183.563 45.0831 182.379 45.0831 180.922V169.149C45.0831 167.693 46.4326 166.508 48.091 166.508H143.819C145.477 166.508 146.827 167.693 146.827 169.149V180.922C146.827 182.379 145.477 183.563 143.819 183.563H101.854C101.087 183.563 100.466 184.108 100.466 184.782C100.466 185.455 101.087 186 101.854 186H143.82C147.009 186 149.603 183.722 149.603 180.922V169.149C149.603 166.35 147.008 164.071 143.819 164.071Z" fill="#3A312A"/>
<path d="M95.9546 4.7486L89.0174 9.40234L96.9258 14.7058C98.2762 14.8764 99.5341 15.4205 100.533 16.2977C101.107 16.8012 101.56 17.3941 101.865 18.0276L123.648 32.6385H137.522L95.9546 4.7486Z" fill="#B9BC39"/>
<path d="M98.7294 147.423C97.9617 147.423 97.342 147.967 97.342 148.641V164.072H111.216V148.641C111.216 147.967 111.836 147.423 112.604 147.423H98.7294Z" fill="#B9BC39"/>
<path d="M104.945 34.8233C104.473 34.5065 104.279 33.9543 104.473 33.467C104.668 32.9715 105.195 32.6386 105.787 32.6386H91.9125C91.3206 32.6386 90.7933 32.9715 90.5991 33.467C90.4048 33.9543 90.5991 34.5065 91.0708 34.8233L139.15 67.0746H153.024L104.945 34.8233Z" fill="#B9BC39"/>
<path d="M112.927 69.2593C112.456 68.9426 112.271 68.3984 112.456 67.903C112.65 67.4076 113.177 67.0746 113.769 67.0746H99.8949C99.3029 67.0746 98.7757 67.4076 98.5814 67.903C98.3964 68.3984 98.5814 68.9426 99.0531 69.2593L153.912 106.059H167.786L112.927 69.2593Z" fill="#B9BC39"/>
<path d="M121.715 108.268C121.215 107.959 121.012 107.407 121.197 106.903C121.382 106.4 121.909 106.059 122.519 106.059H108.645C108.034 106.059 107.507 106.4 107.322 106.903C107.137 107.407 107.341 107.959 107.84 108.268L170.404 147.423H184.278L121.715 108.268Z" fill="#B9BC39"/>
<path d="M143.821 166.509H129.947C131.602 166.509 132.953 167.694 132.953 169.148V180.925C132.953 182.379 131.602 183.564 129.947 183.564H143.821C145.477 183.564 146.827 182.379 146.827 180.925V169.148C146.827 167.694 145.477 166.509 143.821 166.509Z" fill="#6B5B51"/>
</svg>
