<svg width="190" height="184" viewBox="0 0 190 184" fill="none" xmlns="http://www.w3.org/2000/svg">
<path d="M17.6065 166.194C17.4474 166.194 17.2967 166.194 17.146 166.178V175.711C17.146 179.615 20.4027 182.779 24.4213 182.779H31.0269C35.0454 182.779 38.3022 179.615 38.3022 175.711V166.194H17.6065Z" fill="#87796F"/>
<path d="M38.3021 164.974H17.6064C17.4967 164.974 17.3904 164.976 17.2849 164.965C16.9325 164.926 16.575 165.037 16.3087 165.268C16.0425 165.499 15.8901 165.83 15.8901 166.178V175.711C15.8901 180.281 19.717 183.999 24.4213 183.999H31.0268C35.7311 183.999 39.5579 180.281 39.5579 175.711V166.194C39.5579 165.521 38.9962 164.974 38.3021 164.974ZM37.0463 175.712C37.0463 178.936 34.3455 181.56 31.0268 181.56H24.4213C21.1026 181.56 18.4018 178.937 18.4018 175.712V167.415H37.0463V175.712Z" fill="#3A312A"/>
<path d="M171.602 166.194H150.839V175.711C150.839 179.615 154.096 182.779 158.114 182.779H164.72C168.739 182.779 171.995 179.615 171.995 175.711V166.186C171.87 166.194 171.736 166.194 171.602 166.194Z" fill="#87796F"/>
<path d="M172.853 165.294C172.599 165.063 172.262 164.945 171.91 164.969C171.811 164.976 171.707 164.976 171.602 164.975H150.839C150.145 164.975 149.583 165.521 149.583 166.195V175.712C149.583 180.282 153.41 184 158.114 184H164.72C169.424 184 173.251 180.282 173.251 175.712V166.187C173.251 165.848 173.107 165.525 172.853 165.294ZM170.739 175.712C170.739 178.936 168.039 181.56 164.72 181.56H158.114C154.796 181.56 152.095 178.937 152.095 175.712V167.415H170.739V175.712V175.712Z" fill="#3A312A"/>
<path d="M27.3524 9.24499C26.5369 18.6511 16.4486 20.1363 16.4486 20.1363C25.1112 20.5324 27.2695 31.5718 27.2695 31.5718C27.4545 23.7006 38.4219 20.02 38.4219 20.02C30.2064 19.5425 27.3524 9.24499 27.3524 9.24499Z" fill="#D7E057"/>
<path d="M38.4972 18.8016C31.293 18.3827 28.5914 9.02132 28.5646 8.92615C28.4055 8.35515 27.8529 7.97936 27.2393 8.02979C26.6323 8.08348 26.1526 8.55199 26.1015 9.1417C25.3807 17.4521 16.6294 18.8739 16.2602 18.9301C15.6214 19.0236 15.1609 19.5726 15.1944 20.1998C15.2279 20.8261 15.7444 21.3255 16.3891 21.3556C23.9474 21.7013 26.0161 31.7003 26.0362 31.8012C26.1509 32.3795 26.6716 32.7911 27.2686 32.7911C27.3037 32.7911 27.3389 32.7903 27.3741 32.787C28.0137 32.735 28.5101 32.2233 28.5252 31.6003C28.6876 24.6799 38.7316 21.2076 38.8329 21.1734C39.398 20.9823 39.7471 20.43 39.6651 19.8533C39.583 19.2766 39.0949 18.8365 38.4972 18.8016ZM27.1396 27.2169C26.0036 24.671 24.0344 21.5988 20.7878 19.9972C23.2416 18.8544 26.1534 16.8144 27.6545 13.268C28.953 15.766 31.1708 18.8642 34.6309 20.3625C32.1135 21.6964 28.8358 23.9454 27.1396 27.2169Z" fill="#3A312A"/>
<path d="M9.18578 23.0573C8.60895 29.71 1.47345 30.7609 1.47345 30.7609C7.60011 31.0407 9.12718 38.8493 9.12718 38.8493C9.25778 33.2816 17.0153 30.6779 17.0153 30.6779C11.2043 30.3404 9.18578 23.0573 9.18578 23.0573Z" fill="#D7E057"/>
<path d="M17.0907 29.4603C12.2626 29.1797 10.4157 22.8019 10.3981 22.7376C10.239 22.1666 9.68398 21.7859 9.07366 21.8421C8.46585 21.8949 7.98613 22.3651 7.93506 22.9548C7.45032 28.5436 1.5338 29.5164 1.28598 29.5546C0.647195 29.6482 0.186733 30.1972 0.220221 30.8243C0.253709 31.4507 0.770265 31.9501 1.41575 31.9802C6.46828 32.2112 7.88148 39.0111 7.89488 39.0778C8.0079 39.6578 8.53031 40.0702 9.12724 40.0702C9.1624 40.0702 9.19673 40.0686 9.23189 40.0661C9.87235 40.0149 10.3688 39.5016 10.3839 38.8778C10.4927 34.2341 17.3595 31.8549 17.4273 31.8321C17.9932 31.6418 18.3432 31.0895 18.2611 30.5128C18.1783 29.9353 17.6893 29.4953 17.0907 29.4603ZM9.06613 34.9873C8.29255 33.454 7.10707 31.7768 5.34308 30.6926C6.89609 29.8458 8.43822 28.5542 9.42026 26.6939C10.3052 28.2182 11.643 29.9101 13.5569 30.9431C12.0097 31.8378 10.2181 33.171 9.06613 34.9873Z" fill="#3A312A"/>
<path d="M9.18578 1.37379C8.60895 8.02653 1.47345 9.07661 1.47345 9.07661C7.60011 9.35642 9.12718 17.165 9.12718 17.165C9.25778 11.5981 17.0153 8.99446 17.0153 8.99446C11.2043 8.6569 9.18578 1.37379 9.18578 1.37379Z" fill="#D7E057"/>
<path d="M17.0907 7.77683C12.2634 7.49621 10.4165 1.11921 10.3981 1.05495C10.239 0.483949 9.68398 0.108162 9.07366 0.158592C8.46585 0.211463 7.98613 0.680791 7.93506 1.27131C7.45032 6.86014 1.5338 7.83214 1.28598 7.87037C0.647195 7.96391 0.186733 8.51295 0.220221 9.13926C0.253709 9.76557 0.770264 10.265 1.41491 10.2951C6.46828 10.5261 7.88148 17.3261 7.89404 17.3928C8.00706 17.9727 8.52948 18.3851 9.1264 18.3851C9.16157 18.3851 9.19589 18.3843 9.23105 18.381C9.87152 18.3298 10.368 17.8165 10.383 17.1927C10.4919 12.549 17.3586 10.1698 17.4265 10.1471C17.9932 9.95672 18.3424 9.40443 18.2603 8.82773C18.1783 8.25266 17.6893 7.8118 17.0907 7.77683ZM9.06613 13.3038C8.29255 11.7698 7.10707 10.0934 5.34308 9.00912C6.89609 8.16238 8.43822 6.87071 9.42026 5.01048C10.3052 6.53397 11.6422 8.22663 13.5569 9.25883C12.0097 10.1544 10.2181 11.4892 9.06613 13.3038Z" fill="#3A312A"/>
<path d="M171.6 109.834H171.366L156.911 78.4705C150.425 64.3955 136.033 55.3368 120.161 55.3368H69.0476C53.175 55.3368 38.7835 64.3955 32.2977 78.4705L17.8433 109.834H17.6089C8.57799 109.834 1.2558 116.947 1.2558 125.721V150.304C1.2558 159.078 8.57715 166.192 17.6089 166.192H171.6C180.632 166.192 187.953 159.078 187.953 150.304V125.721C187.952 116.947 180.631 109.834 171.6 109.834Z" fill="#F16C7A"/>
<path d="M172.184 108.624L158.058 77.9726C151.379 63.4812 136.504 54.1174 120.161 54.1174H69.0485C52.7054 54.1174 37.8299 63.4812 31.1515 77.9726L17.0254 108.624C7.58507 108.924 0 116.479 0 125.722V150.304C0 159.737 7.89902 167.412 17.6081 167.412H123.215C123.909 167.412 124.471 166.866 124.471 166.192C124.471 165.517 123.909 164.971 123.215 164.971H17.6089C9.2846 164.971 2.51245 158.392 2.51245 150.304V125.722C2.51245 117.634 9.2846 111.055 17.6089 111.055H17.8433C18.3381 111.055 18.7869 110.773 18.9895 110.333L33.4438 78.9698C39.7178 65.3553 53.6941 56.5576 69.0476 56.5576H120.16C135.514 56.5576 149.49 65.3545 155.764 78.9698L170.219 110.333C170.421 110.773 170.87 111.055 171.365 111.055H171.599C179.924 111.055 186.696 117.634 186.696 125.722V150.304C186.696 158.392 179.924 164.971 171.599 164.971H135.061C134.367 164.971 133.805 165.517 133.805 166.192C133.805 166.866 134.367 167.412 135.061 167.412H171.599C181.308 167.412 189.207 159.737 189.207 150.304V125.722C189.208 116.479 181.623 108.924 172.184 108.624Z" fill="#3A312A"/>
<path d="M150.355 104.022L140.461 82.5521C136.479 73.9122 127.644 68.351 117.901 68.351H71.3081C61.5647 68.351 52.7297 73.9122 48.748 82.5521L38.853 104.022C37.5947 106.751 39.6509 109.834 42.7293 109.834H146.48C149.558 109.834 151.614 106.751 150.355 104.022Z" fill="#8AC6DD"/>
<path d="M151.502 103.523L141.607 82.0534C137.43 72.9882 128.124 67.1301 117.901 67.1301H71.308C61.0849 67.1301 51.7794 72.9882 47.6017 82.0534L37.7068 103.523C36.9416 105.184 37.0931 107.087 38.1112 108.615C39.1301 110.142 40.8564 111.054 42.73 111.054H60.4252C61.1192 111.054 61.681 110.508 61.681 109.834C61.681 109.16 61.1192 108.614 60.4252 108.614H42.7292C41.6961 108.614 40.7802 108.131 40.2184 107.288C39.6567 106.445 39.5763 105.437 39.9982 104.52L49.8932 83.0506C53.6673 74.8622 62.0728 69.5711 71.3072 69.5711H117.9C127.135 69.5711 135.541 74.8622 139.314 83.0506L149.209 104.52C149.631 105.437 149.551 106.445 148.989 107.288C148.427 108.131 147.512 108.614 146.479 108.614H72.2725C71.5784 108.614 71.0167 109.16 71.0167 109.834C71.0167 110.508 71.5784 111.054 72.2725 111.054H146.479C148.352 111.054 150.078 110.142 151.097 108.615C152.116 107.088 152.267 105.185 151.502 103.523Z" fill="#3A312A"/>
<path d="M35.3644 147.948C41.433 147.948 46.3527 143.168 46.3527 137.272C46.3527 131.376 41.433 126.596 35.3644 126.596C29.2957 126.596 24.376 131.376 24.376 137.272C24.376 143.168 29.2957 147.948 35.3644 147.948Z" fill="#8AC6DD"/>
<path d="M35.3644 125.376C28.6131 125.376 23.1202 130.713 23.1202 137.272C23.1202 143.831 28.6131 149.168 35.3644 149.168C42.1156 149.168 47.6085 143.831 47.6085 137.272C47.6085 130.713 42.1156 125.376 35.3644 125.376ZM35.3644 146.728C29.9979 146.728 25.6319 142.486 25.6319 137.272C25.6319 132.058 29.9979 127.817 35.3644 127.817C40.7308 127.817 45.0969 132.058 45.0969 137.272C45.0969 142.486 40.7308 146.728 35.3644 146.728Z" fill="#3A312A"/>
<path d="M153.779 147.948C159.847 147.948 164.767 143.168 164.767 137.272C164.767 131.376 159.847 126.596 153.779 126.596C147.71 126.596 142.79 131.376 142.79 137.272C142.79 143.168 147.71 147.948 153.779 147.948Z" fill="#8AC6DD"/>
<path d="M153.779 125.376C147.027 125.376 141.534 130.713 141.534 137.272C141.534 143.831 147.027 149.168 153.779 149.168C160.53 149.168 166.023 143.831 166.023 137.272C166.023 130.713 160.53 125.376 153.779 125.376ZM153.779 146.728C148.412 146.728 144.046 142.486 144.046 137.272C144.046 132.058 148.412 127.817 153.779 127.817C159.145 127.817 163.511 132.058 163.511 137.272C163.511 142.486 159.145 146.728 153.779 146.728Z" fill="#3A312A"/>
<path d="M113.441 133.024H76.6042C70.5931 133.024 65.7206 137.758 65.7206 143.598C65.7206 149.438 70.5931 154.172 76.6042 154.172H113.441C119.452 154.172 124.325 149.438 124.325 143.598C124.325 137.758 119.452 133.024 113.441 133.024Z" fill="#87796F"/>
<path d="M113.441 131.804H76.6043C69.9108 131.804 64.4648 137.095 64.4648 143.598C64.4648 150.101 69.9108 155.392 76.6043 155.392H113.441C120.135 155.392 125.581 150.101 125.581 143.598C125.581 137.095 120.136 131.804 113.441 131.804ZM113.441 152.952H76.6043C71.2955 152.952 66.9764 148.756 66.9764 143.598C66.9764 138.44 71.2955 134.244 76.6043 134.244H113.441C118.75 134.244 123.069 138.44 123.069 143.598C123.069 148.756 118.751 152.952 113.441 152.952Z" fill="#3A312A"/>
<path d="M18.7894 87.2437L7.18237 88.5256C3.80676 88.8981 1.2558 91.6734 1.2558 94.975C1.2558 98.2212 3.72471 100.968 7.03502 101.406L18.7266 102.953C20.4253 103.177 21.9373 101.895 21.9373 100.23V89.9742C21.9373 88.3336 20.4671 87.0582 18.7894 87.2437Z" fill="#87796F"/>
<path d="M21.8293 87.0135C20.9628 86.2619 19.8033 85.9048 18.6479 86.0309L7.04091 87.3128C3.02735 87.7553 0.000854492 91.0496 0.000854492 94.9742C0.000854492 98.8118 2.952 102.096 6.86677 102.614L18.5592 104.161C18.7434 104.185 18.9267 104.196 19.1101 104.196C20.0913 104.196 21.0473 103.852 21.7958 103.217C22.6849 102.464 23.1939 101.374 23.1939 100.228V89.9743C23.1931 88.8453 22.6958 87.7659 21.8293 87.0135ZM20.6815 100.229C20.6815 100.677 20.4898 101.085 20.1432 101.38C19.7966 101.674 19.3554 101.803 18.8966 101.742L7.205 100.196C4.52929 99.8423 2.51247 97.5974 2.51247 94.9742C2.51247 92.2916 4.5812 90.0401 7.32472 89.7376L18.9317 88.4556C19.3813 88.406 19.8175 88.5402 20.1566 88.8339C20.4956 89.1275 20.6815 89.5326 20.6815 89.9734V100.229V100.229Z" fill="#3A312A"/>
<path d="M182.026 88.5248L170.419 87.2429C168.741 87.0574 167.271 88.3328 167.271 89.9734V100.228C167.271 101.893 168.783 103.176 170.482 102.951L182.173 101.405C185.484 100.967 187.952 98.2196 187.952 94.9733C187.952 91.6734 185.402 88.8981 182.026 88.5248Z" fill="#87796F"/>
<path d="M182.168 87.3128L170.561 86.0309C169.407 85.9024 168.246 86.2619 167.38 87.0135C166.512 87.7659 166.015 88.8445 166.015 89.9743V100.229C166.015 101.375 166.524 102.465 167.413 103.218C168.163 103.853 169.118 104.197 170.099 104.197C170.282 104.197 170.467 104.185 170.65 104.161L182.342 102.615C186.256 102.097 189.208 98.8126 189.208 94.975C189.208 91.0496 186.182 87.7561 182.168 87.3128ZM182.003 100.197L170.312 101.743C169.855 101.805 169.413 101.675 169.065 101.38C168.718 101.086 168.527 100.677 168.527 100.23V89.9743C168.527 89.5326 168.713 89.1283 169.053 88.8347C169.346 88.5809 169.71 88.4459 170.094 88.4459C170.155 88.4459 170.216 88.4492 170.278 88.4557L181.885 89.7376C184.629 90.0402 186.697 92.2916 186.697 94.9742C186.697 97.5974 184.679 99.8432 182.003 100.197Z" fill="#3A312A"/>
<path d="M110.724 62.6573H78.4854C76.6586 62.6573 75.1776 64.0962 75.1776 65.871V97.1923C75.1776 98.9672 76.6586 100.407 78.4854 100.407H110.724C112.55 100.407 114.032 98.968 114.032 97.1923V65.8718C114.031 64.0962 112.55 62.6573 110.724 62.6573Z" fill="#D7E057"/>
<path d="M110.724 61.4372H78.4854C75.9688 61.4372 73.9218 63.4268 73.9218 65.8718V97.1931C73.9218 99.6382 75.9688 101.627 78.4854 101.627H110.724C113.24 101.627 115.287 99.6382 115.287 97.1931V65.8718C115.287 63.4268 113.24 61.4372 110.724 61.4372ZM112.776 97.1931C112.776 98.2928 111.855 99.1868 110.724 99.1868H78.4854C77.3535 99.1868 76.4334 98.292 76.4334 97.1931V65.8718C76.4334 64.7721 77.3544 63.8774 78.4854 63.8774H110.724C111.855 63.8774 112.776 64.7721 112.776 65.8718V97.1931Z" fill="#3A312A"/>
<path d="M188.745 1.22009L159.695 1.24693C146.892 14.7265 127.8 34.7644 127.048 35.5542C120.584 32.495 112.566 33.7647 107.463 39.1803L102.847 44.0786L102.857 44.0875L93.2279 54.3045C91.7937 55.8264 91.9578 58.221 93.6322 59.5403C95.1744 60.7547 97.4549 60.4896 98.7953 59.067L108.326 48.954L108.413 49.0313L88.4851 70.1763C87.051 71.6981 87.2151 74.0919 88.8895 75.4113C90.4316 76.6265 92.7121 76.3605 94.0525 74.9379L113.883 53.897L113.96 53.9654L93.0269 76.1767C91.5928 77.6985 91.7569 80.0923 93.4313 81.4117C94.9734 82.6269 97.254 82.3609 98.5943 80.9383L119.429 58.8303L119.506 58.8986L101.624 77.8726C100.19 79.3945 100.354 81.7891 102.029 83.1084C103.571 84.3236 105.851 84.0576 107.192 82.635L124.976 63.7643L125.053 63.8326L110.725 79.0357C109.384 80.4584 109.312 82.6887 110.694 84.0739C112.193 85.5779 114.663 85.5266 116.097 84.0048L138.528 60.2024C141.257 57.3068 142.136 53.4074 141.237 49.8618L188.745 1.22009Z" fill="#FCE8CB"/>
<path d="M189.898 0.737747C189.7 0.289567 189.246 0 188.744 0H188.743L159.693 0.026842C159.344 0.026842 159.009 0.169186 158.772 0.41971C147.552 12.2334 131.5 29.0837 127.199 33.5996L126.743 34.0787C119.833 31.2416 111.645 32.9351 106.537 38.3555L101.92 43.253C101.879 43.2977 101.842 43.3433 101.808 43.3921L92.3018 53.4789C91.3818 54.455 90.9121 55.7727 91.0126 57.0937C91.1155 58.4325 91.7644 59.638 92.8418 60.4863C93.4865 60.9939 94.2291 61.3144 95.0018 61.4534L87.5599 69.3499C86.6398 70.3259 86.1702 71.6436 86.2706 72.9638C86.3728 74.3026 87.0224 75.5081 88.0999 76.3564C88.9363 77.0153 89.9401 77.3585 90.959 77.4C90.8233 77.9068 90.7723 78.4355 90.8133 78.965C90.9154 80.3038 91.5651 81.5085 92.6418 82.3568C94.6762 83.9592 97.6985 83.6965 99.5227 81.7606L99.6006 81.6776C99.8811 82.6049 100.444 83.4264 101.24 84.0544C103.273 85.6559 106.295 85.3932 108.12 83.4582L108.616 82.9311C108.828 83.6615 109.221 84.348 109.794 84.9231C110.741 85.8731 112.006 86.3945 113.361 86.3945C113.385 86.3945 113.409 86.3945 113.434 86.3945C114.796 86.3758 116.105 85.8056 117.025 84.8295L139.457 61.0272C142.213 58.1023 143.367 54.1118 142.608 50.2343L189.656 2.06032C190.001 1.70568 190.096 1.18593 189.898 0.737747ZM140.328 49.0216C140.033 49.3233 139.917 49.7495 140.019 50.153C140.852 53.4407 139.95 56.8895 137.604 59.3785L115.172 83.18C114.71 83.6696 114.08 83.9438 113.397 83.9535C112.705 83.9551 112.074 83.7038 111.597 83.2247C110.714 82.3389 110.739 80.8285 111.652 79.8589L125.98 64.6558C126.205 64.4166 126.323 64.101 126.308 63.7773C126.293 63.4544 126.148 63.1502 125.901 62.9306L125.824 62.8622C125.583 62.6483 125.279 62.5426 124.977 62.5426C124.637 62.5426 124.298 62.676 124.05 62.9387L106.266 81.8094C105.351 82.779 103.805 82.9351 102.82 82.1592C102.286 81.7386 101.964 81.1424 101.914 80.4811C101.863 79.819 102.09 79.1846 102.551 78.6957L120.433 59.7217C120.9 59.2256 120.866 58.4553 120.357 57.9998L120.28 57.9306C120.034 57.7118 119.703 57.5955 119.375 57.6102C119.042 57.624 118.728 57.7663 118.503 58.0047L97.6683 80.1127C96.7549 81.0814 95.2078 81.2392 94.2224 80.4624C93.6883 80.0419 93.3668 79.4465 93.3165 78.7852C93.2655 78.1231 93.4915 77.4887 93.9537 76.999V76.9998L114.886 54.7885C115.111 54.5494 115.23 54.2338 115.214 53.9109C115.199 53.5879 115.054 53.2829 114.808 53.0641L114.731 52.9958C114.219 52.5403 113.425 52.5753 112.957 53.0714L93.1265 74.1131C92.2123 75.0827 90.666 75.2388 89.6806 74.4629C89.1464 74.0423 88.8249 73.4461 88.7739 72.7848C88.7236 72.1227 88.9497 71.4883 89.411 70.9994L109.338 49.8545C109.563 49.6161 109.681 49.2997 109.666 48.976C109.651 48.6531 109.506 48.3489 109.259 48.1301L109.172 48.0528C108.661 47.5973 107.866 47.6323 107.398 48.1284L97.8676 58.2422C96.9534 59.2117 95.407 59.3679 94.4216 58.5919C93.8875 58.1714 93.566 57.576 93.515 56.9139C93.4639 56.2518 93.6908 55.6174 94.1521 55.1277L103.781 44.9107C103.823 44.8659 103.859 44.8204 103.893 44.7716L108.387 40.0043C112.962 35.1491 120.408 33.7704 126.497 36.6515C126.994 36.8874 127.593 36.7784 127.968 36.3831L129.04 35.2581C133.295 30.7918 149.042 14.2604 160.243 2.46783L185.816 2.44425L140.328 49.0216Z" fill="#3A312A"/>
<path d="M171.602 111.054H171.367C170.874 111.054 170.421 110.769 170.22 110.33L155.762 78.9658C152.262 71.3606 146.352 65.2682 139.143 61.3558L134.129 66.6836C137.913 70.0835 141.027 74.2318 143.204 78.9658L157.662 110.33C157.863 110.769 158.315 111.054 158.809 111.054H159.044C167.366 111.054 174.139 117.634 174.139 125.72V150.3C174.139 158.394 167.366 164.974 159.044 164.974H171.602C179.924 164.974 186.697 158.394 186.697 150.3V125.72C186.697 117.634 179.924 111.054 171.602 111.054Z" fill="#D34E5C"/>
</svg>
