<svg width="190" height="184" viewBox="0 0 190 184" fill="none" xmlns="http://www.w3.org/2000/svg">
<path d="M118.94 1.3085H70.132C61.2957 1.3085 54.1321 8.29042 54.1321 16.9027V17.8075C54.1321 26.4198 61.2957 33.4017 70.132 33.4017H118.94C127.776 33.4017 134.94 26.4198 134.94 17.8075V16.9027C134.94 8.29042 127.776 1.3085 118.94 1.3085Z" fill="#D7E057"/>
<path d="M118.94 0.0865784H98.021C97.3276 0.0865784 96.7664 0.633556 96.7664 1.30933C96.7664 1.98511 97.3276 2.53208 98.021 2.53208H118.94C127.07 2.53208 133.685 8.97925 133.685 16.9035V17.8075C133.685 25.7318 127.07 32.1789 118.94 32.1789H70.132C62.0015 32.1789 55.3866 25.7318 55.3866 17.8075V16.9035C55.3866 8.97925 62.0015 2.53208 70.132 2.53208H84.3596C85.053 2.53208 85.6142 1.98511 85.6142 1.30933C85.6142 0.633556 85.053 0.0865784 84.3596 0.0865784H70.132C60.6173 0.0865784 52.8775 7.63015 52.8775 16.9035V17.8075C52.8775 27.0801 60.6173 34.6245 70.132 34.6245H118.94C128.453 34.6245 136.194 27.0801 136.194 17.8075V16.9035C136.194 7.63015 128.453 0.0865784 118.94 0.0865784Z" fill="#3A312A"/>
<path d="M79.103 33.4017H70.101V41.5941H79.103V33.4017Z" fill="#87796F"/>
<path d="M79.1029 32.179H70.101C69.4076 32.179 68.8464 32.7259 68.8464 33.4017V41.5941C68.8464 42.2699 69.4076 42.8169 70.101 42.8169H79.1029C79.7963 42.8169 80.3575 42.2699 80.3575 41.5941V33.4017C80.3575 32.7267 79.7963 32.179 79.1029 32.179ZM77.8484 40.3722H71.3556V34.6253H77.8484V40.3722V40.3722Z" fill="#3A312A"/>
<path d="M118.971 33.4017H109.969V41.5941H118.971V33.4017Z" fill="#87796F"/>
<path d="M118.971 32.179H109.969C109.275 32.179 108.714 32.7259 108.714 33.4017V41.5941C108.714 42.2699 109.275 42.8169 109.969 42.8169H118.971C119.664 42.8169 120.225 42.2699 120.225 41.5941V33.4017C120.225 32.7267 119.663 32.179 118.971 32.179ZM117.716 40.3722H111.223V34.6253H117.716V40.3722Z" fill="#3A312A"/>
<path d="M160.825 57.7011C154.693 47.7291 143.641 41.6259 131.713 41.6259H57.3286C45.4169 41.6259 34.3767 47.7128 28.2402 57.6636L28.231 57.6782C23.7949 64.8713 22.3304 73.4387 24.1336 81.645L38.1304 145.348H150.941L164.904 81.61C166.697 73.4249 165.239 64.8811 160.825 57.7011Z" fill="#8AC6DD"/>
<path d="M161.901 57.0726C155.579 46.7909 144.012 40.4032 131.713 40.4032H57.3287C45.049 40.4032 33.4911 46.7754 27.1564 57.0481C22.5395 64.5346 21.0307 73.3605 22.9067 81.901L36.9035 145.604C37.0273 146.168 37.5383 146.571 38.1305 146.571H150.941C151.532 146.571 152.044 146.167 152.168 145.603L166.131 81.8651C167.996 73.3482 166.494 64.5428 161.901 57.0726ZM163.677 81.3548L149.926 144.125H39.145L25.3606 81.3891C23.6185 73.4575 25.0194 65.2601 29.3159 58.2937C35.1906 48.7668 45.9247 42.8487 57.3287 42.8487H131.713C143.134 42.8487 153.877 48.7807 159.748 58.3296C164.015 65.2675 165.41 73.4444 163.677 81.3548Z" fill="#3A312A"/>
<path d="M133.813 74.7462C130.175 68.8273 123.617 65.2047 116.538 65.2047H72.4972C65.429 65.2047 58.8785 68.8167 55.2369 74.721L55.2327 74.7283C52.6107 78.981 51.7375 84.044 52.7905 88.8984L65.0359 145.352H124.051L136.243 88.8723C137.288 84.0334 136.42 78.9884 133.813 74.7462Z" fill="#D7E057"/>
<path d="M134.889 74.1177C131.047 67.8662 124.016 63.9819 116.538 63.9819H72.4972C65.0325 63.9819 58.0069 67.8556 54.1579 74.0982C51.3628 78.6305 50.4411 83.9764 51.5635 89.1511L63.8089 145.605C63.9318 146.17 64.4437 146.575 65.0367 146.575H124.052C124.645 146.575 125.157 146.17 125.279 145.604L137.471 89.1242C138.584 83.9674 137.668 78.6379 134.889 74.1177ZM135.016 88.6204L123.033 144.129H66.0537L54.0191 88.6457C53.028 84.0775 53.8418 79.3593 56.3133 75.3511C59.7073 69.8463 65.909 66.4274 72.498 66.4274H116.538C123.139 66.4274 129.346 69.856 132.738 75.3747C135.189 79.3642 135.998 84.0693 135.016 88.6204Z" fill="#3A312A"/>
<path d="M176.919 9.1113C176.104 18.5379 166.026 20.0264 166.026 20.0264C174.68 20.4234 176.836 31.4869 176.836 31.4869C177.021 23.5985 187.978 19.9098 187.978 19.9098C179.77 19.4305 176.919 9.1113 176.919 9.1113Z" fill="#D7E057"/>
<path d="M188.053 18.6887C180.856 18.2689 178.156 8.88715 178.13 8.79177C177.971 8.21953 177.418 7.84781 176.806 7.89346C176.2 7.94726 175.721 8.4168 175.67 9.0078C174.95 17.3347 166.208 18.7605 165.839 18.8167C165.201 18.9105 164.741 19.4607 164.774 20.0892C164.807 20.7169 165.323 21.2174 165.968 21.2476C173.519 21.594 175.586 31.6149 175.605 31.7159C175.72 32.2955 176.24 32.708 176.836 32.708C176.871 32.708 176.907 32.7072 176.942 32.7039C177.581 32.6518 178.077 32.139 178.091 31.5146C178.254 24.5783 188.288 21.0992 188.389 21.065C188.954 20.8734 189.302 20.3199 189.221 19.7419C189.139 19.1648 188.65 18.7238 188.053 18.6887ZM176.707 27.1225C175.572 24.571 173.604 21.4921 170.361 19.887C172.812 18.7417 175.721 16.6973 177.221 13.144C178.518 15.6473 180.734 18.7523 184.191 20.2539C181.676 21.5899 178.401 23.8447 176.707 27.1225Z" fill="#3A312A"/>
<path d="M158.771 22.9537C158.195 29.6209 151.067 30.6741 151.067 30.6741C157.187 30.9546 158.713 38.7802 158.713 38.7802C158.843 33.2003 166.593 30.5918 166.593 30.5918C160.787 30.2527 158.771 22.9537 158.771 22.9537Z" fill="#D7E057"/>
<path d="M166.668 29.3699C161.845 29.0887 159.999 22.6969 159.982 22.6325C159.822 22.0603 159.266 21.6812 158.658 21.7342C158.051 21.7872 157.572 22.2584 157.521 22.8494C157.037 28.4504 151.125 29.4253 150.878 29.4636C150.24 29.5574 149.78 30.1076 149.814 30.7361C149.847 31.3638 150.363 31.8643 151.008 31.8945C156.056 32.126 157.467 38.9408 157.481 39.0076C157.594 39.5888 158.116 40.0021 158.713 40.0021C158.747 40.0021 158.781 40.0013 158.816 39.9981C159.456 39.9467 159.952 39.4331 159.967 38.8071C160.077 34.1533 166.935 31.7689 167.004 31.7461C167.569 31.5554 167.919 31.0019 167.837 30.4239C167.754 29.8468 167.266 29.4049 166.668 29.3699ZM158.651 34.9098C157.878 33.3724 156.694 31.6915 154.932 30.6057C156.483 29.7571 158.024 28.4618 159.006 26.5983C159.89 28.1259 161.225 29.8215 163.138 30.8568C161.592 31.7534 159.803 33.0895 158.651 34.9098Z" fill="#3A312A"/>
<path d="M158.771 1.22293C158.195 7.89019 151.067 8.94339 151.067 8.94339C157.187 9.22381 158.713 17.0494 158.713 17.0494C158.843 11.4696 166.593 8.86106 166.593 8.86106C160.787 8.52195 158.771 1.22293 158.771 1.22293Z" fill="#D7E057"/>
<path d="M166.668 7.63993C161.845 7.3587 160 0.967778 159.982 0.90338C159.822 0.331132 159.266 -0.048736 158.658 0.00506507C158.051 0.058051 157.572 0.529218 157.521 1.12022C157.037 6.72124 151.125 7.69618 150.878 7.73449C150.24 7.82824 149.78 8.37847 149.814 9.00697C149.847 9.63465 150.363 10.1352 151.008 10.1653C156.056 10.3968 157.467 17.2108 157.481 17.2777C157.594 17.8589 158.116 18.2722 158.712 18.2722C158.747 18.2722 158.781 18.2714 158.817 18.2681C159.456 18.2167 159.952 17.7032 159.967 17.0771C160.077 12.4233 166.936 10.039 167.004 10.0161C167.57 9.8254 167.919 9.2719 167.837 8.69395C167.754 8.11599 167.266 7.67498 166.668 7.63993ZM158.651 13.179C157.878 11.6416 156.694 9.96153 154.932 8.87491C156.483 8.02632 158.024 6.73102 159.006 4.86673C159.89 6.39436 161.225 8.09072 163.138 9.12517C161.592 10.0227 159.803 11.3595 158.651 13.179Z" fill="#3A312A"/>
<path d="M154.049 145.346H35.0225C30.0226 145.346 25.9687 149.296 25.9687 154.17V161.562C25.9687 173.279 35.715 182.778 47.7371 182.778H141.334C153.357 182.778 163.103 173.279 163.103 161.562V154.17C163.103 149.296 159.049 145.346 154.049 145.346Z" fill="#8AC6DD"/>
<path d="M154.049 144.123H35.0225C29.3384 144.123 24.7141 148.63 24.7141 154.17V161.561C24.7141 173.933 35.0425 184 47.7371 184H63.0386C63.732 184 64.2932 183.453 64.2932 182.777C64.2932 182.101 63.732 181.554 63.0386 181.554H47.7371C36.4259 181.554 27.2232 172.585 27.2232 161.561V154.17C27.2232 149.978 30.7218 146.568 35.0225 146.568H154.048C158.349 146.568 161.847 149.978 161.847 154.17V161.561C161.847 172.585 152.645 181.554 141.334 181.554H74.1257C73.4323 181.554 72.8711 182.101 72.8711 182.777C72.8711 183.453 73.4323 184 74.1257 184H141.334C154.028 184 164.357 173.933 164.357 161.561V154.17C164.357 148.63 159.732 144.123 154.049 144.123Z" fill="#3A312A"/>
<path d="M12.1275 112.892C18.1324 112.892 23.0004 108.148 23.0004 102.295C23.0004 96.4422 18.1324 91.6977 12.1275 91.6977C6.12255 91.6977 1.25458 96.4422 1.25458 102.295C1.25458 108.148 6.12255 112.892 12.1275 112.892Z" fill="#FCE8CB"/>
<path d="M12.1275 90.4749C5.44064 90.4749 0 95.7776 0 102.295C0 108.812 5.44064 114.115 12.1275 114.115C18.8143 114.115 24.255 108.812 24.255 102.295C24.255 95.7776 18.8143 90.4749 12.1275 90.4749ZM12.1275 111.669C6.82401 111.669 2.50913 107.464 2.50913 102.295C2.50913 97.1259 6.82401 92.9204 12.1275 92.9204C17.431 92.9204 21.7458 97.1259 21.7458 102.295C21.7458 107.464 17.431 111.669 12.1275 111.669Z" fill="#3A312A"/>
<path d="M7.9456 76.2095C11.641 76.2095 14.6366 73.2898 14.6366 69.6881C14.6366 66.0865 11.641 63.1668 7.9456 63.1668C4.25025 63.1668 1.25458 66.0865 1.25458 69.6881C1.25458 73.2898 4.25025 76.2095 7.9456 76.2095Z" fill="#FCE8CB"/>
<path d="M7.94559 61.944C3.56464 61.944 0 65.4182 0 69.6881C0 73.958 3.56464 77.4322 7.94559 77.4322C12.3265 77.4322 15.8912 73.958 15.8912 69.6881C15.8912 65.4182 12.3265 61.944 7.94559 61.944ZM7.94559 74.9867C4.94801 74.9867 2.50913 72.6097 2.50913 69.6881C2.50913 66.7665 4.94801 64.3895 7.94559 64.3895C10.9432 64.3895 13.382 66.7665 13.382 69.6881C13.382 72.6097 10.9432 74.9867 7.94559 74.9867Z" fill="#3A312A"/>
<path d="M84.2801 102.096C84.3128 101.644 84.3512 101.194 84.3512 100.733C84.3554 90.0233 75.4505 81.3385 64.4613 81.3344C54.751 81.3312 46.6749 88.1117 44.9219 97.0786C43.9199 96.8145 42.8711 96.6604 41.7829 96.6604C35.1388 96.6579 29.7508 101.906 29.7483 108.382C29.7475 110.726 30.46 112.905 31.6761 114.738C25.4284 115.161 20.4904 120.22 20.4879 126.417C20.4854 132.893 25.87 138.144 32.5142 138.147C36.7563 138.148 40.479 136.005 42.6218 132.772C45.6771 135.542 49.7595 137.251 54.2617 137.253C63.2795 137.256 70.6547 130.458 71.3221 121.834C73.2057 123.029 75.4497 123.731 77.8651 123.731C84.5093 123.733 89.8973 118.485 89.8998 112.009C89.9014 107.832 87.6541 104.174 84.2801 102.096Z" fill="#FCE8CB"/>
<path d="M85.5807 101.476C85.5958 101.23 85.6058 100.983 85.6058 100.734C85.6075 95.2273 83.4095 90.0502 79.4158 86.1553C75.4221 82.2605 70.1111 80.1149 64.4622 80.1125H64.4546C54.751 80.1125 46.3337 86.5629 43.9692 95.6227C43.2366 95.5004 42.5047 95.4377 41.7838 95.4377H41.7796C34.4571 95.4377 28.4971 101.243 28.4946 108.382C28.4937 110.254 28.9094 112.09 29.7073 113.779C23.7046 115.046 19.2359 120.279 19.2342 126.417C19.2317 133.557 25.1892 139.367 32.5142 139.37H32.5184C36.5614 139.37 40.3243 137.597 42.8368 134.567C46.0861 137.095 50.0924 138.474 54.2617 138.475H54.2676C63.1725 138.474 70.7668 132.152 72.3308 123.77C74.0613 124.548 75.944 124.953 77.8643 124.954H77.8685C85.191 124.953 91.151 119.148 91.1543 112.01C91.156 107.795 89.086 103.91 85.5807 101.476ZM77.8693 122.509H77.866C75.7851 122.508 73.7594 121.92 72.0071 120.81C71.6358 120.573 71.1641 120.547 70.7668 120.739C70.3695 120.93 70.1052 121.313 70.0718 121.743C69.4512 129.756 62.5109 136.031 54.2676 136.031H54.2625C50.2588 136.029 46.4282 134.554 43.4766 131.878C43.2048 131.631 42.8309 131.513 42.4671 131.56C42.0991 131.605 41.7696 131.806 41.568 132.11C39.5682 135.126 36.1851 136.926 32.5175 136.926H32.5142C26.5726 136.924 21.74 132.21 21.7425 126.419C21.7442 120.934 26.146 116.339 31.7623 115.959C32.2047 115.929 32.5987 115.673 32.7969 115.285C32.996 114.898 32.9692 114.438 32.7283 114.075C31.5975 112.371 31.0012 110.403 31.002 108.383C31.0037 102.593 35.838 97.884 41.7779 97.884H41.7813C42.7013 97.8848 43.6472 98.0111 44.5932 98.2598C44.9294 98.3486 45.2907 98.2964 45.586 98.1155C45.882 97.9345 46.0878 97.6419 46.153 97.3077C47.8241 88.7598 55.5196 82.558 64.453 82.558H64.4597C69.4395 82.5596 74.1198 84.4508 77.6393 87.8835C81.1588 91.3162 83.0967 95.8795 83.095 100.733C83.095 101.104 83.0674 101.467 83.0406 101.832L83.0273 102.01C82.9946 102.459 83.218 102.889 83.6085 103.13C86.7625 105.072 88.6452 108.392 88.6444 112.009C88.6435 117.799 83.8093 122.509 77.8693 122.509Z" fill="#3A312A"/>
<path d="M67.0684 53.7923H66.968C63.3565 53.7923 60.4292 56.6454 60.4292 60.1653V127.509C60.4292 131.029 63.3565 133.882 66.968 133.882H67.0684C70.6798 133.882 73.6072 131.029 73.6072 127.509V60.1661C73.6072 56.6462 70.6798 53.7923 67.0684 53.7923Z" fill="#F16C7A"/>
<path d="M67.0675 52.5696H66.9671C62.6698 52.5696 59.1738 55.977 59.1738 60.1653V127.509C59.1738 131.697 62.6698 135.105 66.9671 135.105H67.0675C71.3648 135.105 74.8609 131.697 74.8609 127.509V60.1653C74.8617 55.977 71.3656 52.5696 67.0675 52.5696ZM72.3526 127.51C72.3526 130.35 69.9823 132.66 67.0683 132.66H66.968C64.054 132.66 61.6837 130.349 61.6837 127.51V60.1653C61.6837 57.3253 64.054 55.0151 66.968 55.0151H67.0683C69.9823 55.0151 72.3526 57.3261 72.3526 60.1653V127.51Z" fill="#3A312A"/>
<path d="M84.6749 87.2224C85.252 88.3962 85.5699 89.7087 85.5699 91.0944V96.5805C85.5699 97.9663 85.252 99.2787 84.6749 100.453H188.745V87.2224H84.6749Z" fill="#87796F"/>
<path d="M188.745 85.9996H84.6749C84.2433 85.9996 83.8427 86.2157 83.6127 86.5711C83.3836 86.9273 83.3568 87.3724 83.5433 87.7514C84.0552 88.7924 84.3153 89.9173 84.3153 91.0953V96.5813C84.3153 97.7584 84.0552 98.8834 83.5433 99.9252C83.3568 100.304 83.3836 100.749 83.6127 101.106C83.8427 101.461 84.2433 101.677 84.6749 101.677H188.745C189.439 101.677 190 101.13 190 100.454V87.224C190 86.5474 189.439 85.9996 188.745 85.9996ZM187.491 99.2298H86.4715C86.7056 98.3747 86.8244 97.4894 86.8244 96.5805V91.0944C86.8244 90.1855 86.7056 89.3003 86.4715 88.4451H187.491V99.2298V99.2298Z" fill="#3A312A"/>
<path d="M76.3403 82.095H73.6071V105.581H76.3403C81.4389 105.581 85.5723 101.552 85.5723 96.583V91.0928C85.5723 86.1227 81.4389 82.095 76.3403 82.095Z" fill="#F16C7A"/>
<path d="M76.3404 80.8722H73.6063C72.913 80.8722 72.3517 81.4192 72.3517 82.095V105.581C72.3517 106.257 72.913 106.804 73.6063 106.804H76.3404C82.1223 106.804 86.8269 102.219 86.8269 96.583V91.0928C86.8269 85.4567 82.1223 80.8722 76.3404 80.8722ZM84.3178 96.583C84.3178 100.87 80.7398 104.358 76.3404 104.358H74.8609V83.3177H76.3404C80.739 83.3177 84.3178 86.8058 84.3178 91.0928V96.583Z" fill="#3A312A"/>
<path d="M118.941 2.53455H106.396C114.525 2.53455 121.141 8.97438 121.141 16.906V17.8108C121.141 25.7342 114.525 32.1822 106.396 32.1822H118.941C127.071 32.1822 133.687 25.7342 133.687 17.8108V16.906C133.687 8.97438 127.071 2.53455 118.941 2.53455Z" fill="#B9C239"/>
<path d="M159.748 58.3328C153.877 48.779 143.138 42.8528 131.713 42.8528H119.167C130.592 42.8528 141.331 48.779 147.203 58.3328C151.468 65.2699 152.865 73.446 151.134 81.3532L150.113 85.9996H162.659L163.679 81.3532C165.411 73.446 164.014 65.2699 159.748 58.3328Z" fill="#6CA8BF"/>
<path d="M146.684 101.675L137.383 144.121H149.929L159.23 101.675H146.684Z" fill="#6CA8BF"/>
<path d="M154.052 146.567H141.507C145.806 146.567 149.302 149.974 149.302 154.172V161.558C149.302 172.587 140.102 181.554 128.786 181.554H141.331C152.647 181.554 161.848 172.587 161.848 161.558V154.172C161.848 149.974 158.351 146.567 154.052 146.567Z" fill="#6CA8BF"/>
<path d="M187.491 88.4451H174.945V99.2298H187.491V88.4451Z" fill="#695B51"/>
</svg>
