<svg width="190" height="184" viewBox="0 0 190 184" fill="none" xmlns="http://www.w3.org/2000/svg">
<path d="M29.5129 9.07763C28.6378 18.4691 17.811 19.9512 17.811 19.9512C27.1069 20.3468 29.423 31.369 29.423 31.369C29.6216 23.51 41.3908 19.8351 41.3908 19.8351C32.5747 19.3584 29.5129 9.07763 29.5129 9.07763Z" fill="#D7E057"/>
<path d="M41.4716 18.6194C33.7408 18.2011 30.8416 8.85429 30.8129 8.75927C30.6413 8.18835 30.042 7.81152 29.3907 7.86512C28.7393 7.91872 28.2245 8.38651 28.1697 8.9753C27.3971 17.2712 18.0051 18.6916 17.6089 18.7477C16.9234 18.8411 16.4293 19.3893 16.4652 20.0146C16.5012 20.6399 17.0555 21.1386 17.7482 21.1686C25.859 21.5138 28.079 31.4973 28.0997 31.598C28.2228 32.1754 28.7816 32.5864 29.4221 32.5864C29.4599 32.5864 29.4976 32.5856 29.5353 32.5823C30.2217 32.5303 30.7545 32.0195 30.7707 31.3974C30.9458 24.487 41.7241 21.0208 41.8328 20.9867C42.4392 20.7959 42.8139 20.2444 42.7258 19.6686C42.6378 19.0936 42.1131 18.6543 41.4716 18.6194ZM29.2838 27.0217C28.0655 24.4797 25.9516 21.4123 22.4675 19.8132C25.1008 18.673 28.2254 16.6353 29.8363 13.0944C31.2297 15.5885 33.6087 18.6819 37.3237 20.1786C34.6221 21.5097 31.1049 23.7553 29.2838 27.0217Z" fill="#3A312A"/>
<path d="M10.0182 22.8684C9.39918 29.5108 1.742 30.5601 1.742 30.5601C8.31659 30.8395 9.9553 38.6359 9.9553 38.6359C10.0954 33.0777 18.4201 30.4781 18.4201 30.4781C12.1843 30.1402 10.0182 22.8684 10.0182 22.8684Z" fill="#D7E057"/>
<path d="M18.501 29.2615C13.3208 28.9813 11.3389 22.6134 11.3191 22.5492C11.1484 21.9791 10.5555 21.6015 9.89784 21.6543C9.24559 21.7079 8.7308 22.1757 8.676 22.7653C8.15582 28.3454 1.80673 29.3167 1.5408 29.3549C0.855312 29.4483 0.361185 29.9965 0.396223 30.6226C0.432159 31.248 0.986481 31.7466 1.67916 31.7767C7.10108 32.0073 8.6176 38.7967 8.63197 38.8633C8.75326 39.4424 9.31387 39.8541 9.95534 39.8541C9.99217 39.8541 10.0299 39.8533 10.0676 39.8501C10.7549 39.7989 11.2877 39.2864 11.3039 38.6635C11.4206 34.0271 18.7885 31.6516 18.8613 31.6289C19.4686 31.4388 19.8442 30.8874 19.7561 30.3116C19.6672 29.7358 19.1425 29.2964 18.501 29.2615ZM9.88975 34.7799C9.05962 33.2491 7.78747 31.5745 5.89451 30.4919C7.56107 29.6465 9.21594 28.356 10.2707 26.4995C11.2203 28.0214 12.6551 29.7106 14.7097 30.742C13.0477 31.6354 11.126 32.9664 9.88975 34.7799Z" fill="#3A312A"/>
<path d="M10.0182 1.21864C9.39918 7.86106 1.742 8.91033 1.742 8.91033C8.31659 9.1897 9.9553 16.9862 9.9553 16.9862C10.0954 11.4271 18.4201 8.82831 18.4201 8.82831C12.1843 8.49046 10.0182 1.21864 10.0182 1.21864Z" fill="#D7E057"/>
<path d="M18.501 7.61173C13.3451 7.33317 11.3569 1.02373 11.32 0.901098C11.1502 0.330171 10.5528 -0.0499061 9.89784 0.00531873C9.24559 0.0589193 8.7308 0.526706 8.676 1.11631C8.15582 6.69646 1.80673 7.66696 1.5408 7.70513C0.855312 7.79852 0.361185 8.34671 0.396223 8.97205C0.432159 9.59739 0.98648 10.096 1.67826 10.1261C7.10018 10.3567 8.6176 17.1461 8.63108 17.2127C8.75236 17.791 9.31297 18.2035 9.95354 18.2035C9.99128 18.2035 10.0281 18.2027 10.0658 18.1995C10.7531 18.1483 11.2859 17.6359 11.3021 17.013C11.4189 12.3765 18.7867 10.001 18.8595 9.97828C19.4668 9.78824 19.8424 9.23681 19.7543 8.66101C19.6672 8.08602 19.1425 7.64665 18.501 7.61173ZM9.88975 13.1302C9.05962 11.5985 7.78747 9.92468 5.89451 8.84211C7.56107 7.99668 9.21594 6.70621 10.2707 4.84886C11.2203 6.3708 12.6551 8.06003 14.7097 9.09144C13.0477 9.98559 11.126 11.3167 9.88975 13.1302Z" fill="#3A312A"/>
<path d="M164.914 40.3162V49.4446C166.406 49.0954 167.969 48.9167 169.586 48.9167C171.32 48.9167 172.991 49.1278 174.581 49.5177V40.3162H164.914Z" fill="#87796F"/>
<path d="M174.581 39.098H164.915C164.17 39.098 163.567 39.643 163.567 40.3162V49.4446C163.567 49.8214 163.76 50.1771 164.09 50.4078C164.419 50.6384 164.847 50.718 165.252 50.6238C168.094 49.9587 171.282 49.9708 174.228 50.6936C174.344 50.7221 174.463 50.7359 174.581 50.7359C174.874 50.7359 175.163 50.6498 175.4 50.4849C175.733 50.2543 175.929 49.8969 175.929 49.5177V40.3162C175.929 39.643 175.326 39.098 174.581 39.098ZM173.234 47.9949C172.033 47.7984 170.811 47.6985 169.586 47.6985C168.46 47.6985 167.347 47.7805 166.262 47.9429V41.5344H173.234V47.9949Z" fill="#3A312A"/>
<path d="M174.862 1.59222H165.015C157.813 1.59222 151.973 6.87025 151.973 13.3819V28.529C151.973 35.0398 157.812 40.3187 165.015 40.3187H174.862C182.064 40.3187 187.904 35.0406 187.904 28.529V13.3819C187.904 6.87107 182.065 1.59222 174.862 1.59222Z" fill="#F16C7A"/>
<path d="M174.862 0.374031H165.015C157.081 0.374031 150.625 6.20919 150.625 13.3819V28.529C150.625 35.7017 157.08 41.5369 165.015 41.5369H174.862C182.796 41.5369 189.252 35.7017 189.252 28.529V13.3819C189.252 6.20919 182.797 0.374031 174.862 0.374031ZM186.556 28.529C186.556 34.3584 181.311 39.1005 174.862 39.1005H165.015C158.567 39.1005 153.32 34.3584 153.32 28.529V13.3819C153.32 7.55326 158.566 2.81042 165.015 2.81042H174.862C181.31 2.81042 186.556 7.55245 186.556 13.3819V28.529Z" fill="#3A312A"/>
<path d="M169.583 48.9151C159.051 48.9151 150.513 56.6327 150.513 66.1534V138.465C150.513 143.592 145.899 147.763 140.228 147.763H74.094C63.5619 147.763 55.0242 155.48 55.0242 165.001C55.0242 174.522 63.5619 182.239 74.094 182.239H140.228C166.93 182.239 188.652 162.603 188.652 138.465V66.1534C188.652 56.6327 180.115 48.9151 169.583 48.9151Z" fill="#8AC6DD"/>
<path d="M169.584 47.6969C158.326 47.6969 149.166 55.9765 149.166 66.1534V138.465C149.166 142.92 145.157 146.545 140.229 146.545H100.779C100.035 146.545 99.4319 147.089 99.4319 147.763C99.4319 148.436 100.035 148.981 100.779 148.981H140.229C146.643 148.981 151.861 144.263 151.861 138.465V66.1534C151.861 57.3198 159.812 50.1333 169.584 50.1333C179.356 50.1333 187.306 57.3198 187.306 66.1534V138.465C187.306 161.931 166.188 181.021 140.229 181.021H74.0939C64.3219 181.021 56.3718 173.835 56.3718 165.001C56.3718 156.167 64.3219 148.981 74.0939 148.981H87.2602C88.0049 148.981 88.6078 148.436 88.6078 147.763C88.6078 147.089 88.0049 146.545 87.2602 146.545H74.0939C62.8359 146.545 53.6766 154.824 53.6766 165.001C53.6766 175.178 62.8359 183.457 74.0939 183.457H140.228C167.673 183.457 190 163.274 190 138.465V66.1534C190 55.9765 180.841 47.6969 169.584 47.6969Z" fill="#3A312A"/>
<path d="M9.65073 67.9766C5.06523 67.9766 1.3476 71.3372 1.3476 75.4823V175.276C1.3476 179.421 5.06523 182.782 9.65073 182.782C14.2362 182.782 17.9539 179.421 17.9539 175.276V75.4823C17.9539 71.3364 14.2362 67.9766 9.65073 67.9766Z" fill="#87796F"/>
<path d="M9.65075 66.7584C4.32945 66.7584 0 70.672 0 75.4823V101.887C0 102.56 0.602835 103.105 1.34762 103.105C2.0924 103.105 2.69524 102.56 2.69524 101.887V75.4823C2.69524 72.0153 5.81543 69.1948 9.65075 69.1948C13.4861 69.1948 16.6063 72.0153 16.6063 75.4823V175.276C16.6063 178.743 13.4861 181.564 9.65075 181.564C5.81543 181.564 2.69524 178.743 2.69524 175.276V114.516C2.69524 113.842 2.0924 113.298 1.34762 113.298C0.602835 113.298 0 113.842 0 114.516V175.276C0 180.086 4.32945 184 9.65075 184C14.9721 184 19.3015 180.086 19.3015 175.276V75.4823C19.3015 70.6712 14.9721 66.7584 9.65075 66.7584Z" fill="#3A312A"/>
<path d="M41.3127 87.7625L17.9539 109.097V127.841L51.4737 96.9477L41.3127 87.7625Z" fill="#87796F"/>
<path d="M52.4269 96.086L42.2659 86.9008C42.0134 86.6726 41.6702 86.5443 41.3135 86.5443H41.3099C40.9515 86.5451 40.6083 86.6751 40.3558 86.9057L16.9971 108.24C16.7473 108.469 16.6072 108.776 16.6072 109.097V127.841C16.6072 128.336 16.9387 128.782 17.4454 128.969C17.6107 129.03 17.7832 129.059 17.9548 129.059C18.3106 129.059 18.6592 128.933 18.917 128.694L52.4368 97.8004C52.9534 97.3237 52.9498 96.5587 52.4269 96.086ZM19.3015 124.859V109.597L41.3171 89.4891L49.5762 96.955L19.3015 124.859Z" fill="#3A312A"/>
<path d="M72.439 97.5251L40.6756 68.8114C37.869 66.2743 33.3185 66.2743 30.511 68.8114C27.7043 71.3485 27.7043 75.462 30.511 77.9999L62.2744 106.713C65.081 109.25 69.6315 109.25 72.439 106.713C75.2457 104.176 75.2457 100.062 72.439 97.5251Z" fill="#F16C7A"/>
<path d="M73.3922 96.6635L41.628 67.9506C38.3002 64.9425 32.8864 64.9425 29.5578 67.9506C27.946 69.4075 27.0575 71.3453 27.0575 73.4065C27.0575 75.4669 27.9451 77.4046 29.5578 78.8616L61.3212 107.574C62.9329 109.031 65.0765 109.835 67.3558 109.835C69.636 109.835 71.7787 109.032 73.3914 107.574C76.72 104.566 76.72 99.6716 73.3922 96.6635ZM71.4867 105.852C69.2101 107.91 65.5051 107.911 63.2276 105.852L31.4642 77.139C29.1876 75.0803 29.1876 71.7319 31.4642 69.6731C32.6025 68.6441 34.0984 68.1301 35.5933 68.1301C37.0892 68.1301 38.5841 68.6441 39.7224 69.6731L71.4858 98.386C73.7633 100.445 73.7633 103.794 71.4867 105.852Z" fill="#3A312A"/>
<path d="M174.862 2.81367H165.015C164.395 2.81367 163.793 2.85427 163.2 2.94361C168.788 3.73137 173.083 8.11688 173.083 13.3795V28.5257C173.083 33.7964 168.788 38.182 163.2 38.9697C163.793 39.0591 164.395 39.0997 165.015 39.0997H174.862C181.312 39.0997 186.559 34.3568 186.559 28.5257V13.3795C186.559 7.55651 181.312 2.81367 174.862 2.81367Z" fill="#D34E5C"/>
<path d="M109.572 1.60441C106.08 1.60441 103.25 4.16343 103.25 7.31937V71.3453H115.894V7.31937C115.894 4.16262 113.064 1.60441 109.572 1.60441Z" fill="#87796F"/>
<path d="M109.572 0.385399C105.342 0.385399 101.902 3.49586 101.902 7.31856V71.3437C101.902 72.0169 102.505 72.5619 103.25 72.5619H115.894C116.639 72.5619 117.242 72.0169 117.242 71.3437V7.31937C117.242 3.49586 113.802 0.385399 109.572 0.385399ZM114.547 70.1263H104.598V7.31937C104.598 4.83993 106.829 2.8226 109.572 2.8226C112.315 2.8226 114.547 4.83993 114.547 7.31937V70.1263Z" fill="#3A312A"/>
<path d="M116.046 61.3H103.099C100.592 61.3 98.5586 63.1379 98.5586 65.4046V71.3445H120.587V65.4046C120.586 63.1379 118.554 61.3 116.046 61.3Z" fill="#F16C7A"/>
<path d="M116.045 60.0818H103.098C99.8514 60.0818 97.2101 62.4695 97.2101 65.4046V71.3445C97.2101 72.0177 97.8129 72.5627 98.5577 72.5627H120.586C121.331 72.5627 121.934 72.0177 121.934 71.3445V65.4046C121.934 62.4695 119.292 60.0818 116.045 60.0818ZM119.239 70.1263H99.9062V65.4046C99.9062 63.8128 101.338 62.5182 103.099 62.5182H116.046C117.807 62.5182 119.239 63.8128 119.239 65.4046V70.1263Z" fill="#3A312A"/>
<path d="M122.38 71.3445H96.7645C86.3779 71.3445 77.9571 78.9558 77.9571 88.3456H141.187C141.187 78.9566 132.767 71.3445 122.38 71.3445Z" fill="#D7E057"/>
<path d="M122.38 70.1263H96.7645C85.6511 70.1263 76.6095 78.2996 76.6095 88.3456C76.6095 89.0189 77.2123 89.5638 77.9571 89.5638H141.187C141.931 89.5638 142.534 89.0189 142.534 88.3456C142.535 78.2996 133.493 70.1263 122.38 70.1263ZM79.3559 87.1274C80.0468 78.9915 87.5908 72.5627 96.7636 72.5627H122.379C131.553 72.5627 139.096 78.9915 139.787 87.1274H79.3559Z" fill="#3A312A"/>
<path d="M169.586 50.1349C167.197 50.1349 164.924 50.5653 162.848 51.3368C169.281 53.7407 173.827 59.4744 173.827 66.1501V138.462C173.827 161.933 152.714 181.018 126.75 181.018H140.226C166.19 181.018 187.303 161.933 187.303 138.462V66.1501C187.303 57.3222 179.352 50.1349 169.586 50.1349Z" fill="#6CA8BF"/>
<path d="M96.15 114.2C95.3585 113.484 94.9245 112.532 94.929 111.521C94.9335 110.509 95.3746 109.56 96.1724 108.85C97.4787 107.687 98.2055 106.134 98.219 104.476C98.2325 102.819 97.5308 101.255 96.2443 100.075L96.0718 99.9177C94.4699 98.4477 94.4798 96.0657 96.0853 94.6137L96.1131 94.5885L95.168 93.7203L94.1869 92.8838C91.5294 95.2861 91.5141 99.2087 94.151 101.627L94.3235 101.785C95.1051 102.502 95.531 103.451 95.5229 104.457C95.5148 105.465 95.0737 106.408 94.2804 107.115C92.9678 108.283 92.2401 109.845 92.2338 111.511C92.2275 113.177 92.9408 114.744 94.2444 115.922L94.3415 116.01C94.6047 116.248 94.9497 116.367 95.2947 116.367C95.6397 116.367 95.9847 116.248 96.2479 116.01C96.7744 115.534 96.7744 114.763 96.2479 114.288L96.15 114.2Z" fill="#3A312A"/>
<path d="M110.525 114.2C109.733 113.484 109.299 112.532 109.304 111.521C109.307 110.509 109.749 109.56 110.546 108.85C111.852 107.687 112.579 106.134 112.593 104.476C112.606 102.819 111.905 101.255 110.618 100.075L110.446 99.9177C108.844 98.4477 108.853 96.0657 110.459 94.6137L110.487 94.5885L109.542 93.7203L108.561 92.8838C105.903 95.2861 105.888 99.2087 108.525 101.627L108.697 101.785C109.479 102.502 109.905 103.451 109.897 104.457C109.888 105.465 109.446 106.408 108.654 107.115C107.342 108.284 106.614 109.846 106.607 111.512C106.6 113.178 107.315 114.744 108.618 115.922L108.715 116.01C108.978 116.248 109.323 116.367 109.668 116.367C110.013 116.367 110.358 116.248 110.622 116.01C111.148 115.534 111.148 114.763 110.622 114.288L110.525 114.2Z" fill="#3A312A"/>
<path d="M124.899 114.2C124.108 113.484 123.674 112.532 123.678 111.521C123.682 110.509 124.124 109.56 124.921 108.85C126.227 107.687 126.954 106.134 126.967 104.476C126.981 102.819 126.279 101.255 124.993 100.075L124.82 99.9177C123.218 98.4477 123.227 96.0657 124.834 94.6137L124.861 94.5885L123.916 93.7203L122.935 92.8838C120.278 95.2861 120.263 99.2087 122.899 101.627L123.072 101.785C123.853 102.502 124.279 103.451 124.271 104.457C124.263 105.465 123.821 106.408 123.029 107.115C121.716 108.284 120.988 109.846 120.982 111.512C120.975 113.178 121.689 114.744 122.993 115.922L123.09 116.01C123.353 116.248 123.698 116.367 124.043 116.367C124.388 116.367 124.733 116.248 124.996 116.01C125.523 115.534 125.523 114.763 124.996 114.288L124.899 114.2Z" fill="#3A312A"/>
</svg>
