<svg width="190" height="184" viewBox="0 0 190 184" fill="none" xmlns="http://www.w3.org/2000/svg">
<path d="M177.565 9.2056C176.749 18.7296 166.655 20.2326 166.655 20.2326C175.322 20.6337 177.481 31.8115 177.481 31.8115C177.666 23.8416 188.639 20.1149 188.639 20.1149C180.419 19.6314 177.565 9.2056 177.565 9.2056Z" fill="#D7E057"/>
<path d="M188.715 18.8811C181.507 18.4578 178.804 8.97828 178.778 8.88274C178.619 8.30458 178.068 7.92573 177.452 7.97515C176.844 8.0295 176.364 8.50389 176.313 9.10099C175.594 17.514 166.838 18.9536 166.468 19.0104C165.829 19.1051 165.367 19.6611 165.402 20.296C165.435 20.9302 165.952 21.4359 166.598 21.4664C174.159 21.8164 176.229 31.9416 176.248 32.0437C176.364 32.6293 176.885 33.046 177.482 33.046C177.517 33.046 177.552 33.0452 177.587 33.0419C178.227 32.9892 178.724 32.4712 178.739 31.8403C178.902 24.8324 188.95 21.3173 189.052 21.2827C189.618 21.0892 189.966 20.5291 189.884 19.946C189.801 19.3621 189.313 18.9165 188.715 18.8811ZM177.351 27.402C176.215 24.8241 174.244 21.7134 170.996 20.0918C173.451 18.9346 176.364 16.8691 177.866 13.2782C179.165 15.8075 181.384 18.9445 184.847 20.4616C182.329 21.8123 179.049 24.0903 177.351 27.402Z" fill="#3A312A"/>
<path d="M159.39 23.1901C158.813 29.9263 151.674 30.9903 151.674 30.9903C157.804 31.2736 159.331 39.1801 159.331 39.1801C159.462 33.5426 167.224 30.9072 167.224 30.9072C161.409 30.5645 159.39 23.1901 159.39 23.1901Z" fill="#D7E057"/>
<path d="M167.298 29.6734C162.468 29.3893 160.621 22.9323 160.603 22.8673C160.444 22.2891 159.878 21.9086 159.278 21.9597C158.67 22.0132 158.189 22.4884 158.138 23.0864C157.653 28.7452 151.733 29.7294 151.486 29.7681C150.846 29.8629 150.386 30.4188 150.419 31.0538C150.453 31.6879 150.97 32.1936 151.615 32.2241C156.67 32.458 158.085 39.3432 158.098 39.4107C158.212 39.9971 158.733 40.4155 159.331 40.4155C159.366 40.4155 159.401 40.4147 159.436 40.4114C160.077 40.3595 160.574 39.8398 160.589 39.2081C160.698 34.5063 167.567 32.0972 167.635 32.0742C168.201 31.8815 168.55 31.3223 168.469 30.7383C168.386 30.1544 167.896 29.7088 167.298 29.6734ZM159.27 35.2697C158.496 33.7164 157.309 32.019 155.545 30.9212C157.098 30.063 158.641 28.7551 159.625 26.8716C160.51 28.4142 161.848 30.1289 163.763 31.174C162.214 32.0816 160.422 33.4315 159.27 35.2697Z" fill="#3A312A"/>
<path d="M159.39 1.23572C158.813 7.97185 151.674 9.03593 151.674 9.03593C157.804 9.31924 159.331 17.2257 159.331 17.2257C159.462 11.5882 167.224 8.95275 167.224 8.95275C161.409 8.61013 159.39 1.23572 159.39 1.23572Z" fill="#D7E057"/>
<path d="M167.298 7.71901C162.468 7.43487 160.621 0.977108 160.603 0.912045C160.444 0.333885 159.878 -0.0457885 159.278 0.00445042C158.67 0.0579837 158.189 0.533195 158.138 1.13112C157.653 6.79 151.733 7.77501 151.486 7.81372C150.846 7.90843 150.386 8.46436 150.419 9.09934C150.453 9.73351 150.97 10.2392 151.615 10.2697C156.67 10.5036 158.085 17.3888 158.098 17.4563C158.212 18.0435 158.733 18.4611 159.331 18.4611C159.366 18.4611 159.401 18.4603 159.436 18.457C160.077 18.4043 160.574 17.8854 160.589 17.2537C160.698 12.5518 167.567 10.1428 167.635 10.1198C168.201 9.92705 168.55 9.36783 168.469 8.78391C168.386 8.19998 167.896 7.7536 167.298 7.71901ZM159.27 13.3145C158.496 11.762 157.309 10.0638 155.545 8.96592C157.098 8.10857 158.641 6.79988 159.625 4.91634C160.51 6.45974 161.848 8.17363 163.763 9.21876C162.215 10.1264 160.422 11.4762 159.27 13.3145Z" fill="#3A312A"/>
<path d="M178.639 84.2469L69.0783 63.5254L56.9496 61.2276L33.5466 56.8049C26.4855 55.4625 21.3592 49.3597 21.3592 42.2933C21.3592 34.148 28.1021 27.5181 36.3861 27.5181H46.2783V8.32023C46.2783 8.1308 46.2867 7.94138 46.3119 7.75195H36.3861C17.012 7.75195 1.25644 23.2437 1.25644 42.2933C1.25644 58.8227 13.2427 73.0873 29.7522 76.2087L81.4666 85.9929H178.898C181.017 85.9929 182.986 86.66 184.594 87.7801C183.153 86.0102 181.084 84.7081 178.639 84.2469Z" fill="#8AC6DD"/>
<path d="M185.576 87.0084C183.895 84.9437 181.515 83.532 178.876 83.0338L33.7853 55.5926C27.313 54.3622 22.6157 48.7692 22.6157 42.2941C22.6157 34.8283 28.7931 28.7543 36.3861 28.7543H46.2783C46.9727 28.7543 47.5348 28.2017 47.5348 27.5189V8.32105C47.5348 8.18516 47.5389 8.04927 47.5574 7.9142C47.6043 7.56171 47.4946 7.20592 47.2567 6.93825C47.0179 6.67058 46.6737 6.5174 46.3118 6.5174H36.3861C16.3226 6.5174 0 22.5667 0 42.2941C0 59.4157 12.4126 74.1892 29.5151 77.4226L81.2296 87.2069C81.3075 87.2217 81.387 87.2291 81.4666 87.2291H178.898C180.684 87.2291 182.403 87.7686 183.869 88.789C184.089 88.9422 184.342 89.0163 184.594 89.0163C184.93 89.0163 185.264 88.8837 185.51 88.6284C185.938 88.1795 185.967 87.4894 185.576 87.0084ZM81.5864 84.7575L29.9892 74.9955C14.0686 71.9853 2.51285 58.2322 2.51285 42.2933C2.51285 23.9281 17.7081 8.98734 36.3861 8.98734H45.0219V26.2827H36.3861C27.4077 26.2827 20.1028 33.4652 20.1028 42.2933C20.1028 49.9502 25.6562 56.5636 33.3095 58.0181L174.688 84.7575H81.5864V84.7575Z" fill="#3A312A"/>
<path d="M61.9082 2.19272H50.0535C47.9686 2.19272 46.2783 3.85472 46.2783 5.90463V29.9839C46.2783 32.0338 47.9686 33.6958 50.0535 33.6958H61.9074C63.9922 33.6958 65.6825 32.0338 65.6825 29.9839V5.90546C65.6834 3.85472 63.9931 2.19272 61.9082 2.19272Z" fill="#D7E057"/>
<path d="M61.9083 0.957336H50.0535C47.2793 0.957336 45.0219 3.17691 45.0219 5.90464V29.9831C45.0219 32.7108 47.2793 34.9304 50.0535 34.9304H61.9074C64.6816 34.9304 66.939 32.7108 66.939 29.9831V5.90464C66.9398 3.17691 64.6824 0.957336 61.9083 0.957336ZM64.427 29.9831C64.427 31.3486 63.297 32.4596 61.9083 32.4596H50.0535C48.6647 32.4596 47.5348 31.3486 47.5348 29.9831V5.90464C47.5348 4.53912 48.6647 3.4281 50.0535 3.4281H61.9074C63.2962 3.4281 64.4261 4.53912 64.4261 5.90464V29.9831H64.427Z" fill="#3A312A"/>
<path d="M120.752 6.56433C117.939 6.56433 115.659 8.80614 115.659 11.5718V23.6942C115.659 26.4598 117.939 28.7016 120.752 28.7016C123.564 28.7016 125.844 26.4598 125.844 23.6942V11.5718C125.844 8.80614 123.564 6.56433 120.752 6.56433Z" fill="#D7E057"/>
<path d="M120.751 5.32895C117.25 5.32895 114.403 8.12915 114.403 11.5718V23.6942C114.403 27.1359 117.25 29.937 120.751 29.937C124.252 29.937 127.1 27.1368 127.1 23.6942V11.5718C127.1 8.12998 124.252 5.32895 120.751 5.32895ZM124.587 23.6942C124.587 25.7737 122.866 27.4662 120.751 27.4662C118.636 27.4662 116.915 25.7745 116.915 23.6942V11.5718C116.915 9.49219 118.636 7.79972 120.751 7.79972C122.866 7.79972 124.587 9.49219 124.587 11.5718V23.6942Z" fill="#3A312A"/>
<path d="M65.6834 5.75476V29.5491L115.664 24.302V11.3058L65.6834 5.75476Z" fill="#F16C7A"/>
<path d="M115.805 10.0786L65.825 4.52761C65.4698 4.48808 65.113 4.60008 64.8466 4.83398C64.5803 5.06871 64.4278 5.40308 64.4278 5.75558V29.5491C64.4278 29.8999 64.5794 30.2335 64.8441 30.4682C65.0761 30.6724 65.3752 30.7845 65.6843 30.7845C65.7286 30.7845 65.773 30.782 65.8174 30.7779L115.798 25.5316C116.437 25.4641 116.921 24.9345 116.921 24.3028V11.3066C116.92 10.6773 116.44 10.1494 115.805 10.0786ZM114.408 23.1918L66.9398 28.1745V7.13839L114.408 12.4102V23.1918Z" fill="#3A312A"/>
<path d="M178.902 163.41H12.0759C6.64065 163.41 2.23395 167.742 2.23395 173.087C2.23395 178.432 6.64065 182.765 12.0759 182.765H178.902C184.337 182.765 188.744 178.432 188.744 173.087C188.744 167.743 184.337 163.41 178.902 163.41Z" fill="#8AC6DD"/>
<path d="M178.902 162.175H12.0759C5.9563 162.175 0.977509 167.07 0.977509 173.087C0.977509 179.105 5.9563 184 12.0759 184H129.55C130.244 184 130.806 183.447 130.806 182.765C130.806 182.082 130.244 181.529 129.55 181.529H12.0759C7.34172 181.529 3.49036 177.742 3.49036 173.087C3.49036 168.432 7.34172 164.646 12.0759 164.646H178.902C183.636 164.646 187.487 168.432 187.487 173.087C187.487 177.742 183.636 181.529 178.902 181.529H141.839C141.145 181.529 140.582 182.082 140.582 182.765C140.582 183.447 141.145 184 141.839 184H178.902C185.021 184 190 179.105 190 173.087C190 167.07 185.021 162.175 178.902 162.175Z" fill="#3A312A"/>
<path d="M178.902 144.056H12.0759C6.64065 144.056 2.23395 148.388 2.23395 153.733C2.23395 159.077 6.64065 163.41 12.0759 163.41H178.902C184.337 163.41 188.744 159.077 188.744 153.733C188.744 148.389 184.337 144.056 178.902 144.056Z" fill="#8AC6DD"/>
<path d="M178.902 142.821H12.0759C5.9563 142.821 0.977509 147.716 0.977509 153.733C0.977509 159.75 5.9563 164.646 12.0759 164.646H178.902C185.021 164.646 190 159.75 190 153.733C190 147.716 185.021 142.821 178.902 142.821ZM178.902 162.175H12.0759C7.34172 162.175 3.49036 158.388 3.49036 153.733C3.49036 149.078 7.34172 145.291 12.0759 145.291H178.902C183.636 145.291 187.487 149.078 187.487 153.733C187.487 158.388 183.636 162.175 178.902 162.175Z" fill="#3A312A"/>
<path d="M178.902 124.702H12.0759C6.64065 124.702 2.23395 129.034 2.23395 134.379C2.23395 139.723 6.64065 144.056 12.0759 144.056H178.902C184.337 144.056 188.744 139.723 188.744 134.379C188.744 129.034 184.337 124.702 178.902 124.702Z" fill="#8AC6DD"/>
<path d="M178.902 123.466H12.0759C5.9563 123.466 0.977509 128.362 0.977509 134.379C0.977509 140.396 5.9563 145.291 12.0759 145.291H178.902C185.021 145.291 190 140.396 190 134.379C190 128.362 185.021 123.466 178.902 123.466ZM178.902 142.821H12.0759C7.34172 142.821 3.49036 139.034 3.49036 134.379C3.49036 129.724 7.34172 125.937 12.0759 125.937H178.902C183.636 125.937 187.487 129.724 187.487 134.379C187.487 139.034 183.636 142.821 178.902 142.821Z" fill="#3A312A"/>
<path d="M178.902 105.347H12.0759C6.64065 105.347 2.23395 109.679 2.23395 115.024C2.23395 120.369 6.64065 124.702 12.0759 124.702H178.902C184.337 124.702 188.744 120.369 188.744 115.024C188.744 109.68 184.337 105.347 178.902 105.347Z" fill="#8AC6DD"/>
<path d="M178.902 104.112H57.3868C56.6924 104.112 56.1304 104.664 56.1304 105.347C56.1304 106.03 56.6924 106.583 57.3868 106.583H178.902C183.636 106.583 187.487 110.369 187.487 115.024C187.487 119.679 183.636 123.466 178.902 123.466H12.0759C7.34172 123.466 3.49036 119.679 3.49036 115.024C3.49036 110.369 7.34172 106.583 12.0759 106.583H44.9423C45.6367 106.583 46.1988 106.03 46.1988 105.347C46.1988 104.664 45.6367 104.112 44.9423 104.112H12.0759C5.9563 104.112 0.977509 109.007 0.977509 115.024C0.977509 121.042 5.9563 125.937 12.0759 125.937H178.902C185.021 125.937 190 121.042 190 115.024C190 109.007 185.021 104.112 178.902 104.112Z" fill="#3A312A"/>
<path d="M178.902 85.9929H12.0759C6.64065 85.9929 2.23395 90.3258 2.23395 95.6701C2.23395 101.014 6.64065 105.347 12.0759 105.347H178.902C184.337 105.347 188.744 101.014 188.744 95.6701C188.744 90.3258 184.337 85.9929 178.902 85.9929Z" fill="#8AC6DD"/>
<path d="M178.902 84.7575H12.0759C5.9563 84.7575 0.977509 89.6529 0.977509 95.6701C0.977509 101.687 5.9563 106.583 12.0759 106.583H44.9423C45.6367 106.583 46.1988 106.03 46.1988 105.347C46.1988 104.664 45.6367 104.112 44.9423 104.112H12.0759C7.34172 104.112 3.49036 100.325 3.49036 95.6701C3.49036 91.0151 7.34172 87.2283 12.0759 87.2283H178.902C183.636 87.2283 187.487 91.0151 187.487 95.6701C187.487 100.325 183.636 104.112 178.902 104.112H57.3868C56.6924 104.112 56.1304 104.664 56.1304 105.347C56.1304 106.03 56.6924 106.583 57.3868 106.583H178.902C185.021 106.583 190 101.687 190 95.6701C190 89.6529 185.021 84.7575 178.902 84.7575Z" fill="#3A312A"/>
<path d="M178.898 164.646H166.091C170.824 164.646 174.677 168.434 174.677 173.087C174.677 177.741 170.824 181.529 166.091 181.529H178.898C183.639 181.529 187.484 177.741 187.484 173.087C187.484 168.434 183.639 164.646 178.898 164.646Z" fill="#68A8BC"/>
<path d="M178.898 145.291H166.091C170.824 145.291 174.677 149.08 174.677 153.733C174.677 158.386 170.824 162.175 166.091 162.175H178.898C183.639 162.175 187.484 158.386 187.484 153.733C187.484 149.08 183.639 145.291 178.898 145.291Z" fill="#68A8BC"/>
<path d="M178.898 125.937H166.091C170.824 125.937 174.677 129.725 174.677 134.379C174.677 139.032 170.824 142.821 166.091 142.821H178.898C183.639 142.821 187.484 139.032 187.484 134.379C187.484 129.725 183.639 125.937 178.898 125.937Z" fill="#68A8BC"/>
<path d="M178.898 106.583H166.091C170.824 106.583 174.677 110.371 174.677 115.024C174.677 119.678 170.824 123.466 166.091 123.466H178.898C183.639 123.466 187.484 119.678 187.484 115.024C187.484 110.371 183.639 106.583 178.898 106.583Z" fill="#68A8BC"/>
<path d="M178.898 87.2283H166.091C170.824 87.2283 174.677 91.0168 174.677 95.6701C174.677 100.323 170.824 104.112 166.091 104.112H178.898C183.639 104.112 187.484 100.323 187.484 95.6701C187.484 91.0168 183.639 87.2283 178.898 87.2283Z" fill="#68A8BC"/>
<path d="M136.284 24.5136C134.881 24.5136 129.342 30.6313 129.342 36.095C129.342 41.5586 132.45 44.2987 136.284 44.2987C140.117 44.2987 143.225 41.5586 143.225 36.095C143.225 30.6321 137.476 24.5136 136.284 24.5136Z" fill="#8AC6DD"/>
<path d="M136.284 23.2783C134.365 23.2783 131.758 26.8378 131.255 27.5519C130.071 29.2303 128.086 32.5716 128.086 36.0958C128.086 41.8296 131.304 45.5349 136.284 45.5349C141.263 45.5349 144.481 41.8304 144.481 36.0958C144.481 30.4007 138.538 23.2783 136.284 23.2783ZM136.284 43.0633C132.777 43.0633 130.599 40.3933 130.599 36.095C130.599 31.6122 134.818 26.6426 136.248 25.8215C137.559 26.683 141.968 31.6566 141.968 36.095C141.968 40.3933 139.79 43.0633 136.284 43.0633Z" fill="#3A312A"/>
</svg>
