<svg width="190" height="184" viewBox="0 0 190 184" fill="none" xmlns="http://www.w3.org/2000/svg">
<path d="M168.523 7.77063H157.579V175.955H168.523V7.77063Z" fill="#8AC6DD"/>
<path d="M168.523 6.5495H157.58C156.884 6.5495 156.319 7.09574 156.319 7.77061V175.954C156.319 176.629 156.884 177.176 157.58 177.176H168.523C169.219 177.176 169.783 176.629 169.783 175.954V7.77061C169.783 7.09656 169.219 6.5495 168.523 6.5495ZM167.262 174.733H158.841V8.99171H167.262V174.733Z" fill="#3A312A"/>
<path d="M180.45 166.709H145.653C141.114 166.709 137.434 170.273 137.434 174.671C137.434 179.068 141.114 182.632 145.653 182.632H180.45C184.989 182.632 188.669 179.068 188.669 174.671C188.669 170.274 184.989 166.709 180.45 166.709Z" fill="#D7E057"/>
<path d="M180.45 165.488H145.654C140.427 165.488 136.174 169.607 136.174 174.671C136.174 179.734 140.428 183.853 145.654 183.853H180.45C185.677 183.853 189.929 179.734 189.929 174.671C189.929 169.607 185.677 165.488 180.45 165.488ZM180.45 181.411H145.654C141.818 181.411 138.696 178.388 138.696 174.671C138.696 170.954 141.818 167.93 145.654 167.93H180.45C184.286 167.93 187.408 170.954 187.408 174.671C187.408 178.387 184.286 181.411 180.45 181.411Z" fill="#3A312A"/>
<path d="M180.45 143.108H145.653C141.114 143.108 137.434 146.672 137.434 151.07C137.434 155.467 141.114 159.032 145.653 159.032H180.45C184.989 159.032 188.669 155.467 188.669 151.07C188.669 146.672 184.989 143.108 180.45 143.108Z" fill="#D7E057"/>
<path d="M180.45 141.887H145.654C140.427 141.887 136.174 146.007 136.174 151.07C136.174 156.133 140.428 160.252 145.654 160.252H180.45C185.677 160.252 189.929 156.133 189.929 151.07C189.929 146.007 185.677 141.887 180.45 141.887ZM180.45 157.81H145.654C141.818 157.81 138.696 154.786 138.696 151.07C138.696 147.354 141.818 144.33 145.654 144.33H180.45C184.286 144.33 187.408 147.353 187.408 151.07C187.408 154.786 184.286 157.81 180.45 157.81Z" fill="#3A312A"/>
<path d="M180.45 119.507H145.653C141.114 119.507 137.434 123.071 137.434 127.468C137.434 131.865 141.114 135.43 145.653 135.43H180.45C184.989 135.43 188.669 131.866 188.669 127.468C188.669 123.071 184.989 119.507 180.45 119.507Z" fill="#D7E057"/>
<path d="M180.45 118.286H145.654C140.427 118.286 136.174 122.405 136.174 127.468C136.174 132.532 140.428 136.651 145.654 136.651H180.45C185.677 136.651 189.929 132.532 189.929 127.468C189.929 122.405 185.677 118.286 180.45 118.286ZM180.45 134.209H145.654C141.818 134.209 138.696 131.186 138.696 127.468C138.696 123.752 141.818 120.728 145.654 120.728H180.45C184.286 120.728 187.408 123.751 187.408 127.468C187.408 131.185 184.286 134.209 180.45 134.209Z" fill="#3A312A"/>
<path d="M180.45 95.9061H145.653C141.114 95.9061 137.434 99.4701 137.434 103.868C137.434 108.264 141.114 111.829 145.653 111.829H180.45C184.989 111.829 188.669 108.264 188.669 103.868C188.669 99.4701 184.989 95.9061 180.45 95.9061Z" fill="#D7E057"/>
<path d="M180.45 94.685H145.654C140.427 94.685 136.174 98.8042 136.174 103.867C136.174 108.93 140.428 113.05 145.654 113.05H180.45C185.677 113.05 189.929 108.93 189.929 103.867C189.929 98.8042 185.677 94.685 180.45 94.685ZM180.45 110.607H145.654C141.818 110.607 138.696 107.584 138.696 103.867C138.696 100.151 141.818 97.1272 145.654 97.1272H180.45C184.286 97.1272 187.408 100.151 187.408 103.867C187.408 107.584 184.286 110.607 180.45 110.607Z" fill="#3A312A"/>
<path d="M180.45 72.3045H145.653C141.114 72.3045 137.434 75.8685 137.434 80.2661C137.434 84.6629 141.114 88.2277 145.653 88.2277H180.45C184.989 88.2277 188.669 84.6637 188.669 80.2661C188.669 75.8685 184.989 72.3045 180.45 72.3045Z" fill="#D7E057"/>
<path d="M180.45 71.0834H145.654C140.427 71.0834 136.174 75.2026 136.174 80.2661C136.174 85.3288 140.428 89.448 145.654 89.448H180.45C185.677 89.448 189.929 85.3288 189.929 80.2661C189.929 75.2026 185.677 71.0834 180.45 71.0834ZM180.45 87.0058H145.654C141.818 87.0058 138.696 83.9824 138.696 80.2661C138.696 76.5499 141.818 73.5256 145.654 73.5256H180.45C184.286 73.5256 187.408 76.5491 187.408 80.2661C187.408 83.9824 184.286 87.0058 180.45 87.0058Z" fill="#3A312A"/>
<path d="M180.45 48.7038H145.653C141.114 48.7038 137.434 52.2678 137.434 56.6654C137.434 61.0622 141.114 64.627 145.653 64.627H180.45C184.989 64.627 188.669 61.0622 188.669 56.6654C188.669 52.2678 184.989 48.7038 180.45 48.7038Z" fill="#D7E057"/>
<path d="M180.45 47.4818H145.654C140.427 47.4818 136.174 51.601 136.174 56.6646C136.174 61.7281 140.428 65.8473 145.654 65.8473H180.45C185.677 65.8473 189.929 61.7281 189.929 56.6646C189.929 51.6019 185.677 47.4818 180.45 47.4818ZM180.45 63.4051H145.654C141.818 63.4051 138.696 60.3816 138.696 56.6646C138.696 52.9483 141.818 49.9241 145.654 49.9241H180.45C184.286 49.9241 187.408 52.9475 187.408 56.6646C187.408 60.3816 184.286 63.4051 180.45 63.4051Z" fill="#3A312A"/>
<path d="M180.45 25.1022H145.653C141.114 25.1022 137.434 28.6671 137.434 33.0639C137.434 37.4607 141.114 41.0255 145.653 41.0255H180.45C184.989 41.0255 188.669 37.4607 188.669 33.0639C188.669 28.6671 184.989 25.1022 180.45 25.1022Z" fill="#D7E057"/>
<path d="M180.45 23.8812H145.654C140.427 23.8812 136.174 28.0004 136.174 33.0639C136.174 38.1274 140.428 42.2466 145.654 42.2466H180.45C185.677 42.2466 189.929 38.1274 189.929 33.0639C189.929 28.0004 185.677 23.8812 180.45 23.8812ZM180.45 39.8036H145.654C141.818 39.8036 138.696 36.7801 138.696 33.0631C138.696 29.3468 141.818 26.3226 145.654 26.3226H180.45C184.286 26.3226 187.408 29.346 187.408 33.0631C187.408 36.7801 184.286 39.8036 180.45 39.8036Z" fill="#3A312A"/>
<path d="M180.45 1.50067H145.653C141.114 1.50067 137.434 5.06549 137.434 9.46229C137.434 13.8591 141.114 17.4239 145.653 17.4239H180.45C184.989 17.4239 188.669 13.8591 188.669 9.46229C188.669 5.06549 184.989 1.50067 180.45 1.50067Z" fill="#D7E057"/>
<path d="M180.45 0.280334H145.654C140.427 0.280334 136.174 4.39954 136.174 9.46306C136.174 14.5258 140.428 18.645 145.654 18.645H180.45C185.677 18.645 189.929 14.5258 189.929 9.46306C189.929 4.39954 185.677 0.280334 180.45 0.280334ZM180.45 16.2028H145.654C141.818 16.2028 138.696 13.1793 138.696 9.46306C138.696 5.74682 141.818 2.72255 145.654 2.72255H180.45C184.286 2.72255 187.408 5.74601 187.408 9.46306C187.408 13.1793 184.286 16.2028 180.45 16.2028Z" fill="#3A312A"/>
<path d="M32.3493 7.77063H21.4057V175.955H32.3493V7.77063Z" fill="#8AC6DD"/>
<path d="M32.3494 6.5495H21.4057C20.7099 6.5495 20.1451 7.09574 20.1451 7.77061V175.954C20.1451 176.629 20.7099 177.176 21.4057 177.176H32.3494C33.0452 177.176 33.61 176.629 33.61 175.954V7.77061C33.61 7.09656 33.0452 6.5495 32.3494 6.5495ZM31.0888 174.733H22.6663V8.99171H31.0888V174.733Z" fill="#3A312A"/>
<path d="M44.2754 166.709H9.47883C4.93986 166.709 1.25977 170.273 1.25977 174.671C1.25977 179.068 4.93986 182.632 9.47883 182.632H44.2754C48.8144 182.632 52.4945 179.068 52.4945 174.671C52.4945 170.274 48.8144 166.709 44.2754 166.709Z" fill="#D7E057"/>
<path d="M44.2754 165.488H9.47882C4.25156 165.488 0 169.607 0 174.671C0 179.734 4.2524 183.853 9.47882 183.853H44.2746C49.5018 183.853 53.7542 179.734 53.7542 174.671C53.7551 169.607 49.5018 165.488 44.2754 165.488ZM44.2754 181.411H9.47882C5.64242 181.411 2.52119 178.388 2.52119 174.671C2.52119 170.954 5.64242 167.93 9.47882 167.93H44.2746C48.111 167.93 51.233 170.954 51.233 174.671C51.2339 178.387 48.1118 181.411 44.2754 181.411Z" fill="#3A312A"/>
<path d="M44.2754 143.108H9.47883C4.93986 143.108 1.25977 146.672 1.25977 151.07C1.25977 155.467 4.93986 159.032 9.47883 159.032H44.2754C48.8144 159.032 52.4945 155.467 52.4945 151.07C52.4945 146.672 48.8144 143.108 44.2754 143.108Z" fill="#D7E057"/>
<path d="M44.2754 141.887H9.47882C4.25156 141.887 0 146.007 0 151.07C0 156.133 4.2524 160.252 9.47882 160.252H44.2746C49.5018 160.252 53.7542 156.133 53.7542 151.07C53.7551 146.007 49.5018 141.887 44.2754 141.887ZM44.2754 157.81H9.47882C5.64242 157.81 2.52119 154.786 2.52119 151.07C2.52119 147.354 5.64242 144.33 9.47882 144.33H44.2746C48.111 144.33 51.233 147.353 51.233 151.07C51.2339 154.786 48.1118 157.81 44.2754 157.81Z" fill="#3A312A"/>
<path d="M44.2754 119.507H9.47883C4.93986 119.507 1.25977 123.071 1.25977 127.468C1.25977 131.865 4.93986 135.43 9.47883 135.43H44.2754C48.8144 135.43 52.4945 131.866 52.4945 127.468C52.4945 123.071 48.8144 119.507 44.2754 119.507Z" fill="#D7E057"/>
<path d="M44.2754 118.286H9.47882C4.25156 118.286 0 122.405 0 127.468C0 132.532 4.2524 136.651 9.47882 136.651H44.2746C49.5018 136.651 53.7542 132.532 53.7542 127.468C53.7551 122.405 49.5018 118.286 44.2754 118.286ZM44.2754 134.209H9.47882C5.64242 134.209 2.52119 131.186 2.52119 127.468C2.52119 123.752 5.64242 120.728 9.47882 120.728H44.2746C48.111 120.728 51.233 123.751 51.233 127.468C51.2339 131.185 48.1118 134.209 44.2754 134.209Z" fill="#3A312A"/>
<path d="M44.2754 95.9061H9.47883C4.93986 95.9061 1.25977 99.4701 1.25977 103.868C1.25977 108.264 4.93986 111.829 9.47883 111.829H44.2754C48.8144 111.829 52.4945 108.264 52.4945 103.868C52.4945 99.4701 48.8144 95.9061 44.2754 95.9061Z" fill="#D7E057"/>
<path d="M44.2754 94.685H9.47882C4.25156 94.685 0 98.8042 0 103.867C0 108.93 4.2524 113.05 9.47882 113.05H44.2746C49.5018 113.05 53.7542 108.93 53.7542 103.867C53.7551 98.8042 49.5018 94.685 44.2754 94.685ZM44.2754 110.607H9.47882C5.64242 110.607 2.52119 107.584 2.52119 103.867C2.52119 100.151 5.64242 97.1272 9.47882 97.1272H44.2746C48.111 97.1272 51.233 100.151 51.233 103.867C51.2339 107.584 48.1118 110.607 44.2754 110.607Z" fill="#3A312A"/>
<path d="M44.2754 72.3045H9.47883C4.93986 72.3045 1.25977 75.8685 1.25977 80.2661C1.25977 84.6629 4.93986 88.2277 9.47883 88.2277H44.2754C48.8144 88.2277 52.4945 84.6637 52.4945 80.2661C52.4945 75.8685 48.8144 72.3045 44.2754 72.3045Z" fill="#D7E057"/>
<path d="M44.2754 71.0834H9.47882C4.25156 71.0834 0 75.2026 0 80.2661C0 85.3288 4.2524 89.448 9.47882 89.448H44.2746C49.5018 89.448 53.7542 85.3288 53.7542 80.2661C53.7551 75.2026 49.5018 71.0834 44.2754 71.0834ZM44.2754 87.0058H9.47882C5.64242 87.0058 2.52119 83.9824 2.52119 80.2661C2.52119 76.5499 5.64242 73.5256 9.47882 73.5256H44.2746C48.111 73.5256 51.233 76.5491 51.233 80.2661C51.2339 83.9824 48.1118 87.0058 44.2754 87.0058Z" fill="#3A312A"/>
<path d="M44.2754 48.7038H9.47883C4.93986 48.7038 1.25977 52.2678 1.25977 56.6654C1.25977 61.0622 4.93986 64.627 9.47883 64.627H44.2754C48.8144 64.627 52.4945 61.0622 52.4945 56.6654C52.4945 52.2678 48.8144 48.7038 44.2754 48.7038Z" fill="#D7E057"/>
<path d="M44.2754 47.4818H9.47882C4.25156 47.4818 0 51.601 0 56.6646C0 61.7281 4.2524 65.8473 9.47882 65.8473H44.2746C49.5018 65.8473 53.7542 61.7281 53.7542 56.6646C53.7551 51.6019 49.5018 47.4818 44.2754 47.4818ZM44.2754 63.4051H9.47882C5.64242 63.4051 2.52119 60.3816 2.52119 56.6646C2.52119 52.9483 5.64242 49.9241 9.47882 49.9241H44.2746C48.111 49.9241 51.233 52.9475 51.233 56.6646C51.2339 60.3816 48.1118 63.4051 44.2754 63.4051Z" fill="#3A312A"/>
<path d="M44.2754 25.1022H9.47883C4.93986 25.1022 1.25977 28.6671 1.25977 33.0639C1.25977 37.4607 4.93986 41.0255 9.47883 41.0255H44.2754C48.8144 41.0255 52.4945 37.4607 52.4945 33.0639C52.4945 28.6671 48.8144 25.1022 44.2754 25.1022Z" fill="#D7E057"/>
<path d="M44.2754 23.8812H9.47882C4.25156 23.8812 0 28.0004 0 33.0639C0 38.1274 4.2524 42.2466 9.47882 42.2466H44.2746C49.5018 42.2466 53.7542 38.1274 53.7542 33.0639C53.7551 28.0004 49.5018 23.8812 44.2754 23.8812ZM44.2754 39.8036H9.47882C5.64242 39.8036 2.52119 36.7801 2.52119 33.0631C2.52119 29.3468 5.64242 26.3226 9.47882 26.3226H44.2746C48.111 26.3226 51.233 29.346 51.233 33.0631C51.2339 36.7801 48.1118 39.8036 44.2754 39.8036Z" fill="#3A312A"/>
<path d="M44.2754 1.50067H9.47883C4.93986 1.50067 1.25977 5.06549 1.25977 9.46229C1.25977 13.8591 4.93986 17.4239 9.47883 17.4239H44.2754C48.8144 17.4239 52.4945 13.8591 52.4945 9.46229C52.4945 5.06549 48.8144 1.50067 44.2754 1.50067Z" fill="#D7E057"/>
<path d="M44.2754 0.280334H9.47882C4.25156 0.280334 0 4.39954 0 9.46306C0 14.5258 4.2524 18.645 9.47882 18.645H44.2746C49.5018 18.645 53.7542 14.5258 53.7542 9.46306C53.7551 4.39954 49.5018 0.280334 44.2754 0.280334ZM44.2754 16.2028H9.47882C5.64242 16.2028 2.52119 13.1793 2.52119 9.46306C2.52119 5.74682 5.64242 2.72255 9.47882 2.72255H44.2746C48.111 2.72255 51.233 5.74601 51.233 9.46306C51.2339 13.1793 48.1118 16.2028 44.2754 16.2028Z" fill="#3A312A"/>
<path d="M17.7441 166.179C17.5845 166.179 17.4332 166.179 17.2819 166.163V175.704C17.2819 179.611 20.5511 182.778 24.585 182.778H31.2157C35.2496 182.778 38.5187 179.611 38.5187 175.704V166.179H17.7441Z" fill="#87796F"/>
<path d="M38.5187 164.959H17.7441C17.6332 164.959 17.5265 164.961 17.4214 164.95C17.0592 164.909 16.7079 165.022 16.4415 165.254C16.1743 165.485 16.0213 165.816 16.0213 166.164V175.705C16.0213 180.278 19.8627 184 24.5841 184H31.2157C35.937 184 39.7784 180.279 39.7784 175.705V166.18C39.7793 165.505 39.2145 164.959 38.5187 164.959ZM37.2581 175.704C37.2581 178.931 34.547 181.557 31.2165 181.557H24.5849C21.2536 181.557 18.5433 178.931 18.5433 175.704V167.4H37.2589V175.704H37.2581Z" fill="#3A312A"/>
<path d="M172.326 166.179H151.485V175.704C151.485 179.611 154.754 182.778 158.788 182.778H165.418C169.452 182.778 172.721 179.611 172.721 175.704V166.171C172.595 166.179 172.461 166.179 172.326 166.179Z" fill="#87796F"/>
<path d="M173.583 165.279C173.327 165.048 172.976 164.93 172.637 164.953C172.538 164.96 172.432 164.959 172.327 164.959H151.485C150.789 164.959 150.224 165.505 150.224 166.18V175.705C150.224 180.278 154.065 184 158.788 184H165.418C170.141 184 173.982 180.279 173.982 175.705V166.172C173.982 165.833 173.837 165.51 173.583 165.279ZM171.461 175.704C171.461 178.931 168.75 181.557 165.418 181.557H158.788C155.456 181.557 152.745 178.931 152.745 175.704V167.4H171.462V175.704H171.461Z" fill="#3A312A"/>
<path d="M172.253 109.772H172.018L157.509 78.3824C150.997 64.2965 136.551 55.2294 120.619 55.2294H69.3108C53.3777 55.2294 38.9313 64.2965 32.4208 78.3824L17.9105 109.772H17.6752C8.60903 109.772 1.25977 116.891 1.25977 125.673V150.276C1.25977 159.059 8.60903 166.178 17.6752 166.178H172.253C181.32 166.178 188.669 159.059 188.669 150.276V125.673C188.669 116.891 181.32 109.772 172.253 109.772Z" fill="#F16C7A"/>
<path d="M172.839 108.561L158.659 77.8842C151.955 63.3807 137.023 54.0091 120.618 54.0091H69.3108C52.9054 54.0091 37.9741 63.3807 31.2694 77.8842L17.0903 108.561C7.61398 108.861 0 116.422 0 125.673V150.276C0 159.718 7.92913 167.399 17.6752 167.399H123.684C124.38 167.399 124.945 166.852 124.945 166.178C124.945 165.503 124.38 164.956 123.684 164.956H17.6752C9.31915 164.956 2.52119 158.371 2.52119 150.276V125.673C2.52119 117.579 9.31915 110.994 17.6752 110.994H17.9105C18.4072 110.994 18.8576 110.712 19.061 110.272L33.5704 78.8822C39.8692 65.2563 53.8979 56.4513 69.3099 56.4513H120.618C136.03 56.4513 150.059 65.2555 156.357 78.8822L170.868 110.272C171.071 110.712 171.521 110.994 172.018 110.994H172.253C180.609 110.994 187.407 117.579 187.407 125.673V150.276C187.407 158.371 180.609 164.956 172.253 164.956H135.575C134.879 164.956 134.315 165.503 134.315 166.178C134.315 166.852 134.879 167.399 135.575 167.399H172.253C181.999 167.399 189.929 159.718 189.929 150.276V125.673C189.929 116.422 182.315 108.861 172.839 108.561Z" fill="#3A312A"/>
<path d="M151 103.956L141.067 82.4682C137.07 73.8212 128.202 68.2545 118.421 68.2545H71.6505C61.8699 68.2545 53.0012 73.8204 49.0043 82.4682L39.0717 103.956C37.8086 106.688 39.8726 109.773 42.9627 109.773H147.109C150.199 109.772 152.262 106.688 151 103.956Z" fill="#8AC6DD"/>
<path d="M152.15 103.457L142.218 81.9692C138.024 72.8963 128.684 67.0342 118.422 67.0342H71.6513C61.3884 67.0342 52.0482 72.8972 47.8546 81.97L37.9228 103.457C37.1547 105.119 37.306 107.024 38.3279 108.553C39.3507 110.081 41.0836 110.994 42.9644 110.994H60.727C61.4228 110.994 61.9876 110.448 61.9876 109.773C61.9876 109.098 61.4228 108.552 60.727 108.552H42.9627C41.9257 108.552 41.0071 108.068 40.4424 107.225C39.8784 106.382 39.7978 105.372 40.2222 104.455L50.154 82.9672C53.9416 74.772 62.3792 69.4764 71.6496 69.4764H118.42C127.69 69.4764 136.127 74.772 139.916 82.9672L149.848 104.455C150.272 105.371 150.191 106.381 149.627 107.224C149.063 108.067 148.144 108.551 147.107 108.551H72.6177C71.9219 108.551 71.3571 109.097 71.3571 109.772C71.3571 110.447 71.9219 110.993 72.6177 110.993H147.107C148.987 110.993 150.721 110.081 151.744 108.552C152.767 107.024 152.918 105.118 152.15 103.457Z" fill="#3A312A"/>
<path d="M35.5697 147.919C41.6615 147.919 46.5999 143.135 46.5999 137.234C46.5999 131.333 41.6615 126.549 35.5697 126.549C29.4779 126.549 24.5396 131.333 24.5396 137.234C24.5396 143.135 29.4779 147.919 35.5697 147.919Z" fill="#8AC6DD"/>
<path d="M35.5697 125.328C28.7928 125.328 23.2789 130.669 23.2789 137.234C23.2789 143.799 28.7928 149.14 35.5697 149.14C42.3475 149.14 47.8605 143.799 47.8605 137.234C47.8605 130.669 42.3475 125.328 35.5697 125.328ZM35.5697 146.698C30.1828 146.698 25.8001 142.452 25.8001 137.234C25.8001 132.016 30.1828 127.77 35.5697 127.77C40.9567 127.77 45.3393 132.016 45.3393 137.234C45.3393 142.452 40.9567 146.698 35.5697 146.698Z" fill="#3A312A"/>
<path d="M154.435 147.919C160.527 147.919 165.465 143.135 165.465 137.234C165.465 131.333 160.527 126.549 154.435 126.549C148.343 126.549 143.405 131.333 143.405 137.234C143.405 143.135 148.343 147.919 154.435 147.919Z" fill="#8AC6DD"/>
<path d="M154.435 125.328C147.658 125.328 142.145 130.669 142.145 137.234C142.145 143.799 147.658 149.14 154.435 149.14C161.212 149.14 166.726 143.799 166.726 137.234C166.726 130.669 161.212 125.328 154.435 125.328ZM154.435 146.698C149.048 146.698 144.666 142.452 144.666 137.234C144.666 132.016 149.048 127.77 154.435 127.77C159.822 127.77 164.205 132.016 164.205 137.234C164.205 142.452 159.822 146.698 154.435 146.698Z" fill="#3A312A"/>
<path d="M113.944 132.981H76.9668C70.9327 132.981 66.0416 137.719 66.0416 143.564C66.0416 149.409 70.9327 154.147 76.9668 154.147H113.944C119.978 154.147 124.869 149.409 124.869 143.564C124.869 137.719 119.978 132.981 113.944 132.981Z" fill="#87796F"/>
<path d="M113.944 131.76H76.9668C70.2478 131.76 64.7811 137.056 64.7811 143.564C64.7811 150.073 70.2478 155.368 76.9668 155.368H113.944C120.663 155.368 126.13 150.073 126.13 143.564C126.13 137.056 120.663 131.76 113.944 131.76ZM113.944 152.926H76.9668C71.6379 152.926 67.3023 148.726 67.3023 143.564C67.3023 138.402 71.6379 134.202 76.9668 134.202H113.944C119.273 134.202 123.609 138.402 123.609 143.564C123.609 148.727 119.273 152.926 113.944 152.926Z" fill="#3A312A"/>
<path d="M18.9324 87.163L7.28119 88.4459C3.89188 88.8188 1.33203 91.5964 1.33203 94.9007C1.33203 98.1497 3.81036 100.899 7.13328 101.338L18.8694 102.885C20.5746 103.11 22.0923 101.827 22.0923 100.16V89.8958C22.0923 88.2538 20.6166 86.9773 18.9324 87.163Z" fill="#87796F"/>
<path d="M21.9827 86.9334C21.1129 86.1812 19.9448 85.8214 18.7892 85.9492L7.13714 87.2321C3.10828 87.6758 0.0702515 90.9728 0.0702515 94.8999C0.0702515 98.7407 3.03265 102.028 6.96234 102.546L18.6993 104.094C18.8842 104.118 19.0682 104.131 19.2523 104.131C20.2381 104.131 21.197 103.786 21.9491 103.15C22.8416 102.396 23.3526 101.306 23.3526 100.16V89.8958C23.3526 88.7659 22.8534 87.6864 21.9827 86.9334ZM20.8314 100.16C20.8314 100.607 20.6389 101.017 20.291 101.312C19.9422 101.606 19.501 101.735 19.0388 101.675L7.30185 100.128C4.61679 99.7737 2.59144 97.5261 2.59144 94.9007C2.59144 92.2159 4.6689 89.9634 7.42203 89.6597L19.0733 88.3767C19.5271 88.3279 19.9633 88.4614 20.3036 88.7561C20.644 89.05 20.8314 89.4554 20.8314 89.8966V100.16V100.16Z" fill="#3A312A"/>
<path d="M182.791 88.4451L171.14 87.1622C169.456 86.9766 167.98 88.253 167.98 89.895V100.159C167.98 101.825 169.498 103.109 171.203 102.884L182.94 101.337C186.263 100.899 188.741 98.1489 188.741 94.8999C188.739 91.5964 186.18 88.8188 182.791 88.4451Z" fill="#87796F"/>
<path d="M182.933 87.2322L171.282 85.9492C170.126 85.8214 168.958 86.1804 168.088 86.9334C167.218 87.6864 166.719 88.7659 166.719 89.8958V100.16C166.719 101.307 167.229 102.397 168.122 103.151C168.874 103.786 169.833 104.131 170.819 104.131C171.003 104.131 171.187 104.118 171.372 104.094L183.108 102.546C187.038 102.028 190 98.7407 190 94.8991C190 90.972 186.962 87.6759 182.933 87.2322ZM182.768 100.127L171.031 101.675C170.57 101.737 170.128 101.605 169.779 101.311C169.431 101.016 169.239 100.607 169.239 100.159V89.895C169.239 89.4538 169.426 89.0484 169.767 88.7545C170.061 88.5005 170.425 88.3654 170.812 88.3654C170.873 88.3654 170.934 88.3686 170.997 88.3751L182.647 89.6581C185.401 89.9618 187.478 92.2151 187.478 94.8999C187.479 97.5261 185.453 99.7729 182.768 100.127Z" fill="#3A312A"/>
<path d="M172.327 110.993H172.091C171.595 110.993 171.142 110.708 170.94 110.269L156.426 78.8782C150.132 65.2587 136.105 56.4505 120.693 56.4505H108.087C123.5 56.4505 137.526 65.2587 143.82 78.8782L158.334 110.269C158.536 110.708 158.989 110.993 159.485 110.993H159.721C168.074 110.993 174.873 117.579 174.873 125.671V150.272C174.873 158.372 168.074 164.958 159.721 164.958H172.327C180.68 164.958 187.479 158.372 187.479 150.272V125.671C187.479 117.579 180.68 110.993 172.327 110.993Z" fill="#D34E5C"/>
<path d="M102.469 9.10004C101.65 18.514 91.5225 19.9996 91.5225 19.9996C100.218 20.3961 102.385 31.4447 102.385 31.4447C102.57 23.5669 113.579 19.8832 113.579 19.8832C105.333 19.4054 102.469 9.10004 102.469 9.10004Z" fill="#D7E057"/>
<path d="M113.656 18.6645C106.424 18.2453 103.712 8.87613 103.685 8.78089C103.525 8.20941 102.969 7.83494 102.354 7.8846C101.745 7.93832 101.263 8.40723 101.212 8.99743C100.49 17.3132 91.7056 18.7362 91.3342 18.7923C90.693 18.886 90.2307 19.4355 90.2644 20.0631C90.298 20.6899 90.8165 21.1898 91.4644 21.2199C99.0515 21.5659 101.128 31.5741 101.147 31.675C101.263 32.2538 101.786 32.6657 102.385 32.6657C102.421 32.6657 102.456 32.6649 102.491 32.6617C103.134 32.6096 103.632 32.0975 103.647 31.4739C103.809 24.547 113.892 21.0726 113.994 21.0384C114.562 20.8471 114.911 20.2943 114.829 19.7171C114.747 19.1399 114.256 18.6995 113.656 18.6645ZM102.255 27.0861C101.116 24.5381 99.1381 21.4633 95.8782 19.8604C98.3422 18.7166 101.264 16.6749 102.771 13.1256C104.075 15.6256 106.301 18.7264 109.776 20.2267C107.248 21.5618 103.958 23.8127 102.255 27.0861Z" fill="#3A312A"/>
<path d="M84.2328 22.923C83.6538 29.5813 76.4911 30.633 76.4911 30.633C82.6411 30.9131 84.174 38.7282 84.174 38.7282C84.3059 33.1559 92.0922 30.5508 92.0922 30.5508C86.259 30.2122 84.2328 22.923 84.2328 22.923Z" fill="#D7E057"/>
<path d="M92.1679 29.3313C87.3213 29.0505 85.4682 22.6682 85.4506 22.6038C85.2909 22.0324 84.727 21.6563 84.1211 21.7075C83.5109 21.7605 83.0286 22.2302 82.9773 22.8212C82.4915 28.4147 76.5516 29.3883 76.3029 29.4266C75.6616 29.5202 75.1994 30.0697 75.233 30.6973C75.2667 31.3242 75.7852 31.824 76.4331 31.8541C81.5049 32.0853 82.9244 38.891 82.937 38.9577C83.0513 39.5382 83.5748 39.9509 84.1749 39.9509C84.2093 39.9509 84.2446 39.9501 84.2799 39.9468C84.9228 39.8955 85.4212 39.3819 85.4363 38.7575C85.5455 34.1099 92.4376 31.7288 92.5057 31.706C93.0738 31.5155 93.4243 30.9627 93.3427 30.3856C93.2595 29.8067 92.7679 29.3663 92.1679 29.3313ZM84.1127 34.8629C83.3361 33.3284 82.1461 31.6498 80.3754 30.5646C81.9352 29.7172 83.4824 28.4245 84.469 26.5627C85.3573 28.0882 86.6994 29.7815 88.6214 30.8146C87.0675 31.7109 85.2691 33.0459 84.1127 34.8629Z" fill="#3A312A"/>
<path d="M84.2328 1.22223C83.6538 7.88052 76.4911 8.93148 76.4911 8.93148C82.6411 9.21152 84.174 17.0266 84.174 17.0266C84.3059 11.4543 92.0922 8.84926 92.0922 8.84926C86.259 8.51142 84.2328 1.22223 84.2328 1.22223Z" fill="#D7E057"/>
<path d="M92.1679 7.62981C87.3213 7.34895 85.4682 0.965817 85.4506 0.901505C85.2909 0.330027 84.727 -0.0452594 84.1211 0.00439899C83.5109 0.0581277 83.0286 0.527847 82.9773 1.11805C82.4915 6.71153 76.5516 7.68516 76.3029 7.72342C75.6616 7.81704 75.1994 8.36654 75.233 8.99338C75.2667 9.62021 75.7852 10.12 76.4331 10.1502C81.5049 10.3814 82.9244 17.187 82.937 17.2538C83.0513 17.8334 83.5748 18.2469 84.1749 18.2469C84.2093 18.2469 84.2446 18.2461 84.2799 18.2429C84.9228 18.1916 85.4212 17.6779 85.4363 17.0535C85.5455 12.406 92.4376 10.0248 92.5057 10.002C93.0738 9.81152 93.4243 9.25876 93.3427 8.68159C93.2595 8.10604 92.7679 7.66481 92.1679 7.62981ZM84.1127 13.1622C83.3361 11.6269 82.1461 9.94909 80.3754 8.86394C81.9352 8.01568 83.4824 6.72293 84.469 4.86115C85.3573 6.38672 86.6994 8.07999 88.6214 9.11386C87.0675 10.0102 85.2691 11.3444 84.1127 13.1622Z" fill="#3A312A"/>
</svg>
