<svg width="190" height="184" viewBox="0 0 190 184" fill="none" xmlns="http://www.w3.org/2000/svg">
<path d="M17.6801 166.206C17.5203 166.206 17.369 166.206 17.2177 166.189V175.716C17.2177 179.618 20.488 182.78 24.5234 182.78H31.1566C35.192 182.78 38.4624 179.618 38.4624 175.716V166.206H17.6801Z" fill="#87796F"/>
<path d="M38.4624 164.986H17.6801C17.5691 164.986 17.4632 164.99 17.3572 164.977C17.0016 164.938 16.6443 165.049 16.377 165.281C16.1096 165.512 15.9566 165.842 15.9566 166.189V175.716C15.9566 180.284 19.7995 183.999 24.5234 183.999H31.1566C35.8806 183.999 39.7234 180.284 39.7234 175.716V166.206C39.7234 165.532 39.1593 164.986 38.4624 164.986ZM37.2013 175.716C37.2013 178.938 34.4892 181.561 31.1566 181.561H24.5234C21.1909 181.561 18.4787 178.938 18.4787 175.716V167.425H37.2013V175.716Z" fill="#3A312A"/>
<path d="M172.32 166.206H151.47V175.716C151.47 179.618 154.741 182.78 158.776 182.78H165.409C169.445 182.78 172.715 179.618 172.715 175.716V166.198C172.589 166.206 172.454 166.206 172.32 166.206Z" fill="#87796F"/>
<path d="M173.576 165.307C173.32 165.076 172.977 164.956 172.629 164.981C172.531 164.988 172.426 164.987 172.321 164.987H151.471C150.774 164.987 150.21 165.533 150.21 166.206V175.717C150.21 180.284 154.053 184 158.777 184H165.41C170.134 184 173.977 180.284 173.977 175.717V166.198C173.976 165.859 173.831 165.537 173.576 165.307ZM171.454 175.716C171.454 178.938 168.743 181.561 165.409 181.561H158.776C155.444 181.561 152.731 178.938 152.731 175.716V167.425H171.454V175.716V175.716Z" fill="#3A312A"/>
<path d="M27.4668 9.35925C26.6479 18.7592 16.5174 20.2426 16.5174 20.2426C25.2153 20.6385 27.3835 31.6707 27.3835 31.6707C27.5693 23.8046 38.5826 20.1264 38.5826 20.1264C30.3319 19.6493 27.4668 9.35925 27.4668 9.35925Z" fill="#D7E057"/>
<path d="M38.6583 18.9096C31.424 18.491 28.711 9.13577 28.6841 9.04067C28.5235 8.46923 27.9594 8.09613 27.3533 8.1449C26.7437 8.19855 26.262 8.66676 26.2107 9.25608C25.4877 17.5595 16.699 18.9811 16.3282 19.0372C15.6868 19.1307 15.2235 19.6794 15.2572 20.3061C15.2908 20.932 15.8095 21.4311 16.4577 21.4612C24.0476 21.8066 26.125 31.7991 26.1443 31.8999C26.2595 32.4779 26.7824 32.8892 27.3818 32.8892C27.4172 32.8892 27.4525 32.8884 27.4878 32.8851C28.1301 32.8331 28.6286 32.3218 28.6437 31.6984C28.8077 24.7817 38.8937 21.3124 38.9954 21.2783C39.5629 21.0873 39.9134 20.5353 39.831 19.959C39.7487 19.3843 39.2585 18.9446 38.6583 18.9096ZM27.2532 27.3195C26.1132 24.7752 24.135 21.705 20.8748 20.1045C23.3389 18.9625 26.2629 16.9238 27.7703 13.3797C29.0742 15.876 31.3004 18.9722 34.7767 20.4703C32.2479 21.8026 28.9565 24.0501 27.2532 27.3195Z" fill="#3A312A"/>
<path d="M9.22424 23.1617C8.64499 29.81 1.47964 30.8603 1.47964 30.8603C7.63194 31.1399 9.16539 38.9433 9.16539 38.9433C9.29654 33.3793 17.0865 30.7773 17.0865 30.7773C11.2512 30.4408 9.22424 23.1617 9.22424 23.1617Z" fill="#D7E057"/>
<path d="M17.1622 29.5605C12.3147 29.2801 10.4601 22.9072 10.4416 22.843C10.2819 22.2724 9.72364 21.8928 9.1116 21.9472C8.50125 22.0001 8.01952 22.4699 7.96824 23.0592C7.48147 28.6444 1.54019 29.6166 1.29134 29.6548C0.649877 29.7483 0.187488 30.2969 0.220275 30.9237C0.253904 31.5496 0.772621 32.0487 1.42081 32.0787C6.49448 32.3096 7.91444 39.1051 7.92705 39.1718C8.04054 39.7513 8.56514 40.1634 9.16541 40.1634C9.19988 40.1634 9.23519 40.1618 9.2705 40.1594C9.91364 40.1082 10.4122 39.5953 10.4273 38.9718C10.5366 34.3312 17.4312 31.9536 17.4993 31.9308C18.0685 31.7406 18.4191 31.1886 18.3367 30.6123C18.2543 30.036 17.7625 29.5954 17.1622 29.5605ZM9.10488 35.0839C8.32806 33.5516 7.13762 31.8755 5.36625 30.792C6.9266 29.9458 8.47435 28.655 9.4605 26.7959C10.3491 28.3192 11.6926 30.01 13.6144 31.0415C12.0591 31.9373 10.2617 33.2696 9.10488 35.0839Z" fill="#3A312A"/>
<path d="M9.22424 1.49323C8.64499 8.14161 1.47964 9.19102 1.47964 9.19102C7.63194 9.47146 9.16539 17.2741 9.16539 17.2741C9.29654 11.7101 17.0865 9.10892 17.0865 9.10892C11.2512 8.77158 9.22424 1.49323 9.22424 1.49323Z" fill="#D7E057"/>
<path d="M17.1622 7.89206C12.3147 7.61162 10.4601 1.23879 10.4416 1.17457C10.2819 0.603945 9.72364 0.23003 9.1116 0.278801C8.50125 0.331637 8.01952 0.801471 7.96824 1.39079C7.48147 6.97596 1.54019 7.94733 1.29134 7.98553C0.649877 8.07901 0.187488 8.6277 0.220275 9.25441C0.253904 9.88031 0.77262 10.3794 1.41996 10.4095C6.49448 10.6403 7.91359 17.4359 7.92705 17.5025C8.04054 18.0813 8.56514 18.4942 9.16457 18.4942C9.19988 18.4942 9.23434 18.4934 9.26965 18.4901C9.9128 18.4389 10.4113 17.926 10.4265 17.3025C10.5358 12.6619 17.4304 10.2843 17.4985 10.2615C18.0668 10.0713 18.4182 9.5194 18.3359 8.94309C18.2543 8.36677 17.7625 7.92701 17.1622 7.89206ZM9.10488 13.4154C8.32806 11.8824 7.13762 10.2071 5.36625 9.12354C6.9266 8.27735 8.47435 6.98653 9.4605 5.12752C10.3491 6.65082 11.6917 8.34157 13.6144 9.37309C12.0591 10.268 10.2608 11.6011 9.10488 13.4154Z" fill="#3A312A"/>
<path d="M90.2164 1.2193V7.4133C91.7549 7.09628 93.3606 6.93371 95 6.93371C96.6394 6.93371 98.2451 7.09628 99.7836 7.4133V1.2193H90.2164Z" fill="#87796F"/>
<path d="M99.7836 0H90.2164C89.5194 0 88.9553 0.54543 88.9553 1.21929V7.41329C88.9553 7.78152 89.1277 8.12942 89.4227 8.36109C89.7187 8.59275 90.1071 8.68379 90.4787 8.60576C93.3934 8.00587 96.6057 8.00587 99.5205 8.60576C99.6079 8.62364 99.6962 8.63258 99.7828 8.63258C100.069 8.63258 100.349 8.53829 100.576 8.36109C100.872 8.12942 101.044 7.78152 101.044 7.41329V1.21929C101.045 0.546242 100.481 0 99.7836 0ZM98.5226 5.95746C97.3691 5.7957 96.1896 5.71441 95 5.71441C93.8104 5.71441 92.6317 5.7957 91.4774 5.95746V2.43858H98.5226V5.95746Z" fill="#3A312A"/>
<path d="M95 6.93207C82.2069 6.93207 71.8368 16.9587 71.8368 29.328C71.8368 29.3825 71.841 29.4361 71.841 29.4906H118.159C118.159 29.4361 118.163 29.3825 118.163 29.328C118.163 16.9587 107.793 6.93207 95 6.93207Z" fill="#87796F"/>
<path d="M95 5.71277C81.5327 5.71277 70.5758 16.3068 70.5758 29.328L70.58 29.4995C70.585 30.1693 71.1483 30.7099 71.841 30.7099H118.159C118.838 30.7099 119.397 30.1132 119.421 29.4564L119.424 29.328C119.424 16.3068 108.467 5.71277 95 5.71277ZM73.1248 28.2713C73.6956 17.0831 83.2889 8.15135 95 8.15135C106.697 8.15135 116.281 17.0627 116.872 28.2713H73.1248Z" fill="#3A312A"/>
<path d="M120.479 29.5142H69.5207C67.3785 29.5142 65.6416 31.1935 65.6416 33.2647C65.6416 35.3359 67.3785 37.0152 69.5207 37.0152H120.48C122.622 37.0152 124.359 35.3359 124.359 33.2647C124.359 31.1935 122.622 29.5142 120.479 29.5142Z" fill="#87796F"/>
<path d="M120.48 28.2949H69.5198C66.685 28.2949 64.3797 30.5245 64.3797 33.2647C64.3797 36.0057 66.6858 38.2345 69.5198 38.2345H120.479C123.314 38.2345 125.619 36.0048 125.619 33.2647C125.62 30.5245 123.314 28.2949 120.48 28.2949ZM120.48 35.7959H69.5198C68.0763 35.7959 66.9019 34.6604 66.9019 33.2647C66.9019 31.869 68.0763 30.7334 69.5198 30.7334H120.479C121.923 30.7334 123.097 31.869 123.097 33.2647C123.098 34.6604 121.924 35.7959 120.48 35.7959Z" fill="#3A312A"/>
<path d="M71.5712 40.439C70.9062 40.439 67.6989 43.7953 67.6989 46.7932C67.6989 49.791 69.4324 51.294 71.5712 51.294C73.7099 51.294 75.4435 49.791 75.4435 46.7932C75.4443 43.7953 72.3539 40.439 71.5712 40.439Z" fill="#8AC6DD"/>
<path d="M71.5712 39.2197C69.313 39.2197 66.4378 44.3538 66.4378 46.7923C66.4378 50.7437 69.0162 52.5124 71.5712 52.5124C74.1269 52.5124 76.7045 50.7437 76.7045 46.7923C76.7054 44.0514 73.7377 39.2197 71.5712 39.2197ZM71.5712 50.0747C69.936 50.0747 68.9599 48.8481 68.9599 46.7932C68.9599 44.8829 70.7204 42.6451 71.5955 41.8518C72.4531 42.6118 74.1832 44.813 74.1832 46.7932C74.1832 48.8481 73.2072 50.0747 71.5712 50.0747Z" fill="#3A312A"/>
<path d="M87.1907 40.439C86.5257 40.439 83.3184 43.7953 83.3184 46.7932C83.3184 49.791 85.0519 51.294 87.1907 51.294C89.3294 51.294 91.063 49.791 91.063 46.7932C91.063 43.7953 87.9725 40.439 87.1907 40.439Z" fill="#8AC6DD"/>
<path d="M87.1898 39.2197C84.9325 39.2197 82.0564 44.3538 82.0564 46.7923C82.0564 50.7437 84.6349 52.5124 87.1898 52.5124C89.7456 52.5124 92.3232 50.7437 92.3232 46.7923C92.324 44.0514 89.3563 39.2197 87.1898 39.2197ZM87.1898 50.0747C85.5546 50.0747 84.5786 48.8481 84.5786 46.7932C84.5786 44.8829 86.339 42.6459 87.2142 41.8518C88.0709 42.6126 89.8011 44.813 89.8011 46.7932C89.8019 48.8481 88.8258 50.0747 87.1898 50.0747Z" fill="#3A312A"/>
<path d="M102.809 40.439C102.144 40.439 98.9371 43.7953 98.9371 46.7932C98.9371 49.791 100.671 51.294 102.809 51.294C104.948 51.294 106.682 49.791 106.682 46.7932C106.682 43.7953 103.592 40.439 102.809 40.439Z" fill="#8AC6DD"/>
<path d="M102.809 39.2197C100.552 39.2197 97.676 44.3538 97.676 46.7923C97.676 50.7437 100.254 52.5124 102.809 52.5124C105.365 52.5124 107.943 50.7437 107.943 46.7923C107.943 44.0514 104.975 39.2197 102.809 39.2197ZM102.809 50.0747C101.174 50.0747 100.198 48.8481 100.198 46.7932C100.198 44.8829 101.959 42.6459 102.834 41.8518C103.69 42.6126 105.421 44.813 105.421 46.7932C105.421 48.8481 104.445 50.0747 102.809 50.0747Z" fill="#3A312A"/>
<path d="M118.429 40.439C117.764 40.439 114.557 43.7953 114.557 46.7932C114.557 49.791 116.29 51.294 118.429 51.294C120.568 51.294 122.301 49.791 122.301 46.7932C122.301 43.7953 119.211 40.439 118.429 40.439Z" fill="#8AC6DD"/>
<path d="M118.429 39.2197C116.172 39.2197 113.295 44.3538 113.295 46.7923C113.295 50.7437 115.874 52.5124 118.429 52.5124C120.984 52.5124 123.562 50.7437 123.562 46.7923C123.562 44.0514 120.595 39.2197 118.429 39.2197ZM118.429 50.0747C116.794 50.0747 115.818 48.8481 115.818 46.7932C115.818 44.8829 117.578 42.6459 118.453 41.8518C119.311 42.6118 121.041 44.813 121.041 46.7932C121.04 48.8481 120.064 50.0747 118.429 50.0747Z" fill="#3A312A"/>
<path d="M172.317 109.883H172.082L157.567 78.5394C151.053 64.4745 136.602 55.4209 120.663 55.4209H69.3366C53.3976 55.4209 38.9458 64.4745 32.4328 78.5394L17.9172 109.883H17.6818C8.61306 109.883 1.26023 116.991 1.26023 125.76V150.326C1.26023 159.096 8.61222 166.204 17.6818 166.204H172.317C181.387 166.204 188.739 159.096 188.739 150.326V125.76C188.739 116.991 181.387 109.883 172.317 109.883Z" fill="#F16C7A"/>
<path d="M172.904 108.672L158.719 78.0412C152.012 63.5592 137.074 54.2016 120.663 54.2016H69.3365C52.9259 54.2016 37.9882 63.5592 31.2811 78.0412L17.0958 108.672C7.61681 108.973 0 116.523 0 125.76V150.326C0 159.754 7.93208 167.423 17.6826 167.423H123.731C124.428 167.423 124.992 166.878 124.992 166.204C124.992 165.53 124.428 164.985 123.731 164.985H17.6826C9.32345 164.985 2.52212 158.41 2.52212 150.326V125.76C2.52212 117.678 9.32261 111.102 17.6826 111.102H17.918C18.4149 111.102 18.8655 110.82 19.0689 110.381L33.5838 79.0377C39.8849 65.4312 53.9188 56.6402 69.3365 56.6402H120.663C136.081 56.6402 150.115 65.4312 156.416 79.0377L170.931 110.381C171.135 110.82 171.585 111.102 172.082 111.102H172.317C180.677 111.102 187.478 117.677 187.478 125.76V150.326C187.478 158.409 180.677 164.985 172.317 164.985H135.627C134.93 164.985 134.366 165.53 134.366 166.204C134.366 166.878 134.93 167.423 135.627 167.423H172.317C182.068 167.423 190 159.754 190 150.326V125.76C190 116.523 182.383 108.973 172.904 108.672Z" fill="#3A312A"/>
<path d="M150.984 104.074L141.049 82.6184C137.051 73.9842 128.179 68.4266 118.394 68.4266H71.6065C61.8223 68.4266 52.9503 73.9842 48.9519 82.6192L39.0156 104.075C37.752 106.803 39.8168 109.883 42.9081 109.883H60.6773H72.5758H147.093C150.183 109.883 152.248 106.802 150.984 104.074Z" fill="#8AC6DD"/>
<path d="M152.135 103.576L142.2 82.1201C138.005 73.0607 128.66 67.2065 118.394 67.2065H71.6065C61.3406 67.2065 51.9961 73.0607 47.801 82.1201L37.8655 103.575C37.0963 105.235 37.2484 107.137 38.2707 108.663C39.2939 110.19 41.0274 111.101 42.9089 111.101H60.6781C61.3751 111.101 61.9392 110.556 61.9392 109.882C61.9392 109.208 61.3751 108.662 60.6781 108.662H42.9081C41.8706 108.662 40.9509 108.18 40.3876 107.337C39.8235 106.495 39.7428 105.487 40.1674 104.571L50.1029 83.1158C53.8928 74.9328 62.3335 69.6451 71.6065 69.6451H118.394C127.667 69.6451 136.108 74.9328 139.898 83.1158L149.834 104.571C150.258 105.487 150.177 106.495 149.613 107.337C149.049 108.179 148.13 108.662 147.092 108.662H72.575C71.878 108.662 71.3139 109.207 71.3139 109.881C71.3139 110.555 71.878 111.1 72.575 111.1H147.092C148.973 111.1 150.707 110.189 151.73 108.662C152.752 107.137 152.905 105.235 152.135 103.576Z" fill="#3A312A"/>
<path d="M35.5123 147.972C41.6064 147.972 46.5466 143.195 46.5466 137.303C46.5466 131.411 41.6064 126.634 35.5123 126.634C29.4183 126.634 24.4781 131.411 24.4781 137.303C24.4781 143.195 29.4183 147.972 35.5123 147.972Z" fill="#8AC6DD"/>
<path d="M35.5124 125.415C28.7329 125.415 23.217 130.748 23.217 137.303C23.217 143.858 28.7329 149.191 35.5124 149.191C42.2927 149.191 47.8077 143.858 47.8077 137.303C47.8077 130.748 42.2927 125.415 35.5124 125.415ZM35.5124 146.752C30.1234 146.752 25.7391 142.513 25.7391 137.303C25.7391 132.092 30.1234 127.853 35.5124 127.853C40.9013 127.853 45.2856 132.092 45.2856 137.303C45.2856 142.513 40.9013 146.752 35.5124 146.752Z" fill="#3A312A"/>
<path d="M154.421 147.972C160.515 147.972 165.456 143.195 165.456 137.303C165.456 131.411 160.515 126.634 154.421 126.634C148.327 126.634 143.387 131.411 143.387 137.303C143.387 143.195 148.327 147.972 154.421 147.972Z" fill="#8AC6DD"/>
<path d="M154.422 125.415C147.643 125.415 142.127 130.748 142.127 137.303C142.127 143.858 147.643 149.191 154.422 149.191C161.202 149.191 166.717 143.858 166.717 137.303C166.717 130.748 161.202 125.415 154.422 125.415ZM154.422 146.752C149.033 146.752 144.649 142.513 144.649 137.303C144.649 132.092 149.033 127.853 154.422 127.853C159.811 127.853 164.195 132.092 164.195 137.303C164.195 142.513 159.811 146.752 154.422 146.752Z" fill="#3A312A"/>
<path d="M113.916 133.057H76.9248C70.8885 133.057 65.9956 137.788 65.9956 143.624C65.9956 149.461 70.8885 154.192 76.9248 154.192H113.916C119.952 154.192 124.845 149.461 124.845 143.624C124.845 137.788 119.952 133.057 113.916 133.057Z" fill="#87796F"/>
<path d="M113.916 131.838H76.9248C70.2033 131.838 64.7345 137.126 64.7345 143.624C64.7345 150.123 70.2033 155.411 76.9248 155.411H113.916C120.637 155.411 126.106 150.123 126.106 143.624C126.106 137.126 120.637 131.838 113.916 131.838ZM113.916 152.972H76.9248C71.5938 152.972 67.2566 148.779 67.2566 143.624C67.2566 138.47 71.5938 134.276 76.9248 134.276H113.916C119.247 134.276 123.584 138.47 123.584 143.624C123.584 148.779 119.247 152.972 113.916 152.972Z" fill="#3A312A"/>
<path d="M18.868 87.3061L7.21243 88.5872C3.8227 88.9595 1.26106 91.733 1.26106 95.0324C1.26106 98.2765 3.74031 101.022 7.06447 101.46L18.8058 103.005C20.5116 103.229 22.0299 101.947 22.0299 100.283V90.0349C22.0291 88.3954 20.5528 87.1216 18.868 87.3061Z" fill="#87796F"/>
<path d="M21.9206 87.0769C21.0496 86.325 19.8861 85.9673 18.7259 86.095L7.07034 87.3752C3.03999 87.8182 0.000831604 91.1103 0.000831604 95.0315C0.000831604 98.8666 2.96433 102.149 6.89548 102.667L18.636 104.213C18.8209 104.237 19.0059 104.249 19.19 104.249C20.1753 104.249 21.1354 103.905 21.887 103.27C22.7798 102.517 23.291 101.428 23.291 100.283V90.0341C23.291 88.9066 22.7907 87.8288 21.9206 87.0769ZM20.7688 100.283C20.7688 100.731 20.5763 101.139 20.2283 101.434C19.8785 101.728 19.4346 101.858 18.9765 101.796L7.23596 100.251C4.54906 99.8973 2.52295 97.6538 2.52295 95.0324C2.52295 92.3515 4.60035 90.1015 7.35534 89.7984L19.0109 88.5181C19.0731 88.5116 19.1345 88.5083 19.1959 88.5083C19.5818 88.5083 19.9483 88.6425 20.2417 88.8961C20.5822 89.1895 20.7688 89.5943 20.7688 90.0349V100.283V100.283Z" fill="#3A312A"/>
<path d="M182.788 88.5872L171.132 87.3061C169.447 87.1208 167.971 88.3954 167.971 90.0349V100.283C167.971 101.947 169.489 103.229 171.195 103.005L182.936 101.46C186.26 101.022 188.739 98.2765 188.739 95.0324C188.739 91.733 186.178 88.9595 182.788 88.5872Z" fill="#87796F"/>
<path d="M182.93 87.376L171.275 86.0958C170.113 85.9674 168.95 86.3258 168.08 87.0777C167.209 87.8288 166.71 88.9075 166.71 90.0357V100.284C166.71 101.43 167.222 102.519 168.114 103.272C168.865 103.906 169.826 104.25 170.811 104.25C170.995 104.25 171.18 104.238 171.365 104.214H171.364L183.105 102.668C187.036 102.151 190 98.8683 190 95.0332C190 91.1103 186.961 87.8182 182.93 87.376ZM182.766 100.251L171.025 101.796H171.024C170.567 101.857 170.121 101.728 169.773 101.434C169.424 101.139 169.232 100.731 169.232 100.283V90.0349C169.232 89.5935 169.419 89.1895 169.759 88.8961C170.053 88.6425 170.419 88.5084 170.805 88.5084C170.866 88.5084 170.928 88.5116 170.99 88.5181L182.645 89.7984C185.4 90.1016 187.478 92.3516 187.478 95.0324C187.478 97.6539 185.452 99.8974 182.766 100.251Z" fill="#3A312A"/>
<path d="M172.32 111.102H172.085C171.588 111.102 171.135 110.817 170.933 110.378L156.414 79.0345C150.117 65.4353 136.085 56.6402 120.667 56.6402H108.056C123.475 56.6402 137.506 65.4353 143.803 79.0345L158.322 110.378C158.524 110.817 158.978 111.102 159.474 111.102H159.709C168.066 111.102 174.867 117.678 174.867 125.758V150.322C174.867 158.41 168.066 164.986 159.709 164.986H172.32C180.677 164.986 187.478 158.41 187.478 150.322V125.758C187.478 117.678 180.677 111.102 172.32 111.102Z" fill="#D34E5C"/>
</svg>
